<svg id="Livello_1" data-name="Livello 1" xmlns="http://www.w3.org/2000/svg" viewBox="0 0 1000 1000"><defs><style>.cls-1{fill:#343533;}.cls-10,.cls-11,.cls-12,.cls-13,.cls-15,.cls-16,.cls-19,.cls-2,.cls-20,.cls-8,.cls-9{fill:none;stroke-miterlimit:10;}.cls-2{stroke:#e20613;stroke-width:46.62px;}.cls-3,.cls-5{font-size:30.46px;font-family:AmericanTypewriter, American Typewriter;}.cls-3,.cls-5,.cls-7{fill:#b6b6b6;}.cls-3{letter-spacing:-0.01em;}.cls-4{letter-spacing:0em;}.cls-6{letter-spacing:-0.02em;}.cls-10,.cls-11,.cls-12,.cls-13,.cls-15,.cls-16,.cls-19,.cls-20,.cls-8,.cls-9{stroke:#fff;}.cls-10,.cls-11,.cls-12,.cls-13,.cls-8,.cls-9{stroke-width:8.29px;}.cls-9{stroke-dasharray:4.5 4.5;}.cls-10{stroke-dasharray:4.56 4.56;}.cls-11{stroke-dasharray:4.46 4.46;}.cls-12{stroke-dasharray:4.52 4.52;}.cls-13{stroke-dasharray:4.45 4.45;}.cls-14{fill:#fff;}.cls-15,.cls-16{stroke-width:8.74px;}.cls-16{stroke-dasharray:4.94 4.94;}.cls-17{fill:#e20613;}.cls-18{fill:#1d1d1b;}.cls-19{stroke-width:4.55px;stroke-dasharray:11.08 3.91;}.cls-20{stroke-width:7.39px;stroke-dasharray:3.69 5.54;}</style></defs><title>Tavola disegno 5Zippaldera</title><rect x="0.17" width="999.6" height="999.6"/><path class="cls-1" d="M484.15,416.83c62.18,6,58.1,65.31,30.19,102.09-12,15.78-30.19,26.64-30.19,26.64"/><path class="cls-1" d="M484.82,540.44c-18.08,0-31.56,6.3-46.73,36.51-9,18,35,225.13,35,225.13,26.88-24,4.88-218.74,11.76-261.64"/><path class="cls-1" d="M485.35,540.44c-18.08,0-50.67,6.3-65.84,36.51-9,18,54.08,225.13,54.08,225.13"/><path class="cls-1" d="M493.33,540.44c18.07,0,58.79,6.3,74,36.51,9,18-286.39,211.15-286.39,211.15"/><path class="cls-1" d="M493.33,540.44c18.07,0,31.56,6.3,46.73,36.51,9,18-258.29,211.38-258.29,211.38-20-30,218.44-205,211.56-247.89"/><line class="cls-2" x1="419.79" y1="145.07" x2="487.79" y2="350.2"/><line class="cls-2" x1="504.35" y1="134.73" x2="487.79" y2="350.2"/><line class="cls-2" x1="586.34" y1="157.87" x2="487.79" y2="350.2"/><line class="cls-2" x1="653.02" y1="210.91" x2="487.79" y2="350.2"/><line class="cls-2" x1="694.02" y1="285.59" x2="487.79" y2="350.2"/><line class="cls-2" x1="702.96" y1="370.31" x2="487.79" y2="350.2"/><text class="cls-3" transform="translate(729.53 371.12)">P<tspan class="cls-4" x="19.04" y="0">ankazzippa</tspan></text><text class="cls-5" transform="translate(772.84 344.25)">Ciao! sono</text><text class="cls-5" transform="translate(772.84 398.31)"><tspan class="cls-6">P</tspan><tspan x="18.95" y="0">orkazeppa</tspan></text><path class="cls-7" d="M729.65,418h84.26l-1.21-1.59C808,434.87,795.79,449.62,777,454.78c-19.31,5.3-37.76-2-53.87-12.45a1.26,1.26,0,0,0-1.52,2c17.28,16.8,43.38,24.36,66.93,18.66,21.77-5.28,41.11-20.61,52-40.08a37.62,37.62,0,0,0,1.87-4.89c.23-.15.78.07,1,0,1.33-.39,3.38,0,4.77,0H948.46a1.25,1.25,0,0,0,0-2.5H842.23a1.23,1.23,0,0,0-1.08.62c-9.72,20.58-28,37-49.92,43.53-23.55,7-50.34-.07-67.86-17.1l-1.52,2c17.16,11.13,37,18.51,57.37,12.24,18.85-5.79,31.08-20.93,35.89-39.67a1.26,1.26,0,0,0-1.2-1.58H729.65a1.25,1.25,0,0,0,0,2.5Z"/><line class="cls-8" x1="472.54" y1="232.58" x2="471.86" y2="230.43"/><line class="cls-9" x1="470.51" y1="226.14" x2="444.21" y2="142.49"/><line class="cls-8" x1="443.53" y1="140.35" x2="442.85" y2="138.19"/><line class="cls-8" x1="521.14" y1="236.68" x2="521.28" y2="234.42"/><line class="cls-10" x1="521.55" y1="229.87" x2="526.91" y2="141.08"/><line class="cls-8" x1="527.05" y1="138.8" x2="527.19" y2="136.55"/><line class="cls-8" x1="561.83" y1="256.78" x2="562.86" y2="254.76"/><line class="cls-11" x1="564.9" y1="250.79" x2="604.51" y2="173.38"/><line class="cls-8" x1="605.52" y1="171.39" x2="606.55" y2="169.38"/><line class="cls-8" x1="592.35" y1="292.63" x2="594.09" y2="291.18"/><line class="cls-12" x1="597.56" y1="288.29" x2="665.18" y2="231.91"/><line class="cls-8" x1="666.92" y1="230.46" x2="668.65" y2="229.02"/><line class="cls-8" x1="606.68" y1="337.22" x2="608.84" y2="336.55"/><line class="cls-13" x1="613.1" y1="335.25" x2="696.11" y2="309.78"/><line class="cls-8" x1="698.24" y1="309.12" x2="700.4" y2="308.46"/><path class="cls-14" d="M416.21,178.37h0a8.78,8.78,0,0,1-2.58-12.11l19.83-30.58a8.78,8.78,0,0,1,12.11-2.59h0a8.78,8.78,0,0,1,2.58,12.11l-19.83,30.59A8.78,8.78,0,0,1,416.21,178.37ZM434.3,161.6l10.46-16.12A6.08,6.08,0,0,0,443,137.1h0a6.08,6.08,0,0,0-8.38,1.79L424.14,155a6.08,6.08,0,0,0,1.79,8.38h0A6.07,6.07,0,0,0,434.3,161.6Z"/><path class="cls-14" d="M575.17,126.44h0a8.78,8.78,0,0,1-6.38,10.61l-35.37,8.81a8.78,8.78,0,0,1-10.61-6.38h0a8.79,8.79,0,0,1,6.38-10.62l35.37-8.8A8.78,8.78,0,0,1,575.17,126.44Zm-24.67-.1L531.86,131a6.08,6.08,0,0,0-4.42,7.34h0a6.09,6.09,0,0,0,7.34,4.42l18.65-4.64a6.07,6.07,0,0,0,4.41-7.34h0A6.07,6.07,0,0,0,550.5,126.34Z"/><path class="cls-14" d="M571.45,200.41h0a8.78,8.78,0,0,1,.6-12.37l27-24.49a8.79,8.79,0,0,1,12.37.61h0a8.77,8.77,0,0,1-.61,12.36l-27,24.49A8.77,8.77,0,0,1,571.45,200.41Zm21.78-11.58,14.23-12.91a6.06,6.06,0,0,0,.42-8.55h0a6.08,6.08,0,0,0-8.56-.42l-14.23,12.91a6.07,6.07,0,0,0-.42,8.55h0A6.08,6.08,0,0,0,593.23,188.83Z"/><path class="cls-14" d="M618.92,243.3h0a8.78,8.78,0,0,1,5.86-10.91l34.91-10.49a8.78,8.78,0,0,1,10.9,5.87h0a8.77,8.77,0,0,1-5.86,10.9l-34.91,10.49A8.77,8.77,0,0,1,618.92,243.3Zm24.64-1.08,18.4-5.53a6.08,6.08,0,0,0,4.06-7.55h0a6.07,6.07,0,0,0-7.54-4l-18.4,5.53a6.07,6.07,0,0,0-4.06,7.54h0A6.08,6.08,0,0,0,643.56,242.22Z"/><path class="cls-14" d="M740.05,333.85h0a8.79,8.79,0,0,1-12,3l-31.31-18.66a8.77,8.77,0,0,1-3-12h0a8.78,8.78,0,0,1,12-3L737,321.85A8.79,8.79,0,0,1,740.05,333.85ZM722.6,316.41l-16.5-9.84a6.09,6.09,0,0,0-8.31,2.1h0a6.07,6.07,0,0,0,2.11,8.3l16.5,9.83a6.07,6.07,0,0,0,8.3-2.1h0A6.07,6.07,0,0,0,722.6,316.41Z"/><path class="cls-1" d="M473.59,802.08c-18.07,0-31.56,6.3-46.72,36.51-9,18-34.16,92.22-34.16,92.22,26.88-23.95,74-85.82,80.88-128.73"/><path class="cls-1" d="M473.59,802.08c-23.17,19.94-29.48,45.68-17.66,79.31,6.57,18.69,17.67,118.67,17.67,118.67"/><rect class="cls-1" x="392.71" y="860.3" width="56.42" height="139.77"/><path class="cls-1" d="M280.9,788.1c17.5,4.55,29,14,36,47.09,4.21,19.66-7.57,164.87-7.57,164.87-20-29.94-32.61-168.71-28.47-212"/><path class="cls-1" d="M280.9,788.1c17.5,4.55,29,14,36,47.09,4.21,19.66-7.57,164.87-7.57,164.87"/><path class="cls-1" d="M280.9,788.1c17.41,25.13,17.05,51.63-2.85,81.2-11.07,16.44-47,110.41-47,110.41"/><rect class="cls-1" x="270.5" y="855.2" width="56.42" height="139.77" transform="translate(242.39 -45.4) rotate(14.57)"/><path class="cls-1" d="M485.51,416.83c-18.08,0-31.56,6.3-46.73,36.51-9,18-34.16,92.22-34.16,92.22,26.88-24,74-85.83,80.89-128.73"/><path class="cls-1" d="M485.51,416.83c-18.08,0-31.56,6.3-46.73,36.51-9,18-34.16,92.22-34.16,92.22"/><path class="cls-1" d="M485.51,416.83c-23.17,19.94-29.48,45.67-17.67,79.3,6.57,18.69,17.67,49.43,17.67,49.43"/><circle class="cls-1" cx="490.15" cy="342.69" r="70.64" transform="translate(-60.35 108.94) rotate(-11.95)"/><rect class="cls-1" x="485.51" y="542.48" width="7.82" height="3.08"/><path class="cls-14" d="M528.35,295.3h0A9.27,9.27,0,0,1,521,306.08l-37.77,7.09a9.27,9.27,0,0,1-10.78-7.37h0A9.26,9.26,0,0,1,479.8,295l37.77-7.09A9.26,9.26,0,0,1,528.35,295.3Zm-26-1.62-19.91,3.73a6.41,6.41,0,0,0-5.1,7.46h0a6.41,6.41,0,0,0,7.45,5.1l19.91-3.74a6.4,6.4,0,0,0,5.1-7.46h0A6.4,6.4,0,0,0,502.39,293.68Z"/><path class="cls-15" d="M432.48,323.63s.84-.07,2.38-.12"/><path class="cls-16" d="M439.79,323.48c15.37.27,51.76,4.07,77.8,32"/><path class="cls-15" d="M519.26,357.31c.52.59,1,1.19,1.55,1.8"/><path class="cls-1" d="M491.72,427c11-14.31,24.28-21.13,57.46-14.67C568.9,416.16,643,441.65,643,441.65c-35.38,6.63-113.16,6.12-151.32-14.66"/><rect class="cls-1" x="428.19" y="311.18" width="7.67" height="18.84"/><path class="cls-14" d="M511.8,411.34h0a9.26,9.26,0,0,1-7.07-11l8.13-37.57a9.26,9.26,0,0,1,11-7.07h0a9.25,9.25,0,0,1,7.07,11l-8.12,37.57A9.26,9.26,0,0,1,511.8,411.34Zm11.58-23.29,4.28-19.81a6.41,6.41,0,0,0-4.89-7.59h0a6.4,6.4,0,0,0-7.59,4.89l-4.29,19.81a6.41,6.41,0,0,0,4.89,7.59h0A6.42,6.42,0,0,0,523.38,388.05Z"/><path class="cls-17" d="M754.49,545.56c-122.91,44-106.2,170.54-106.2,170.54L526.38,573,412,553.58,499,515.41l30.54-86.28,35.56,94.46,189.35,22Z"/><path class="cls-18" d="M536.33,562.42h0a9.25,9.25,0,0,1-7.61-10.61L535,513.89a9.26,9.26,0,0,1,10.61-7.61h0a9.25,9.25,0,0,1,7.61,10.61l-6.24,37.92A9.26,9.26,0,0,1,536.33,562.42Z"/><line class="cls-19" x1="227.79" y1="352.35" x2="634.51" y2="610.98"/><line class="cls-19" x1="217.63" y1="335.74" x2="636.28" y2="603.03"/><line class="cls-19" x1="193.93" y1="310.86" x2="630.01" y2="589.08"/><line class="cls-19" x1="185.13" y1="294.37" x2="636.2" y2="582.18"/><path class="cls-1" d="M404.62,545.56c-17.92,2.35-32.11-2.13-51.09-30.1-11.28-16.63-71-117.25-71-117.25,29.78,20.24,109.66,105.71,122.07,147.35"/><path class="cls-1" d="M318.91,456.11c9.12-5.64,13.73-12.46,10.86-29.7-1.71-10.26-14.89-48.86-14.89-48.86-5.22,18.3-7.44,58.64,4,78.56"/><path class="cls-1" d="M318.91,456.11c10.38-2.7,16.8-7.85,19.15-25.17,1.39-10.3.19-51.08.19-51.08-10.39,15.95-24.42,53.83-19.34,76.25"/><path class="cls-1" d="M318.91,456.11c10.71.49,18.37-2.54,25.72-18.4C349,428.28,359.9,389,359.9,389c-14.63,12.17-39.22,44.21-41,67.14"/><path class="cls-1" d="M318.66,448.31c6.62,8.43,13.91,12.25,30.72,7.48,10-2.84,46.9-20.25,46.9-20.25-18.77-3.14-59.1-.86-77.62,12.77"/><path class="cls-1" d="M170.7,340.83h0a9.26,9.26,0,0,1-7.61-10.61l6.25-37.92A9.25,9.25,0,0,1,180,284.69h0a9.26,9.26,0,0,1,7.61,10.61l-6.25,37.92A9.25,9.25,0,0,1,170.7,340.83ZM181.1,317l3.29-20a6.41,6.41,0,0,0-5.26-7.34h0a6.41,6.41,0,0,0-7.34,5.26l-3.29,20a6.41,6.41,0,0,0,5.26,7.34h0A6.41,6.41,0,0,0,181.1,317Z"/><path class="cls-1" d="M198.64,363.82h0a9.26,9.26,0,0,1-9.84-8.58l-2.61-38.35a9.26,9.26,0,0,1,8.58-9.84h0a9.27,9.27,0,0,1,9.84,8.59L207.22,354A9.25,9.25,0,0,1,198.64,363.82Zm4.66-25.59L201.92,318a6.4,6.4,0,0,0-6.81-5.94h0a6.4,6.4,0,0,0-5.93,6.8l1.37,20.22a6.41,6.41,0,0,0,6.81,5.93h0A6.4,6.4,0,0,0,203.3,338.23Z"/><path class="cls-1" d="M199.73,386.53h0a9.26,9.26,0,0,1-7.08-11L200.78,338a9.26,9.26,0,0,1,11-7.08h0a9.27,9.27,0,0,1,7.07,11l-8.13,37.57A9.26,9.26,0,0,1,199.73,386.53Zm11.57-23.3,4.28-19.8a6.41,6.41,0,0,0-4.89-7.59h0a6.41,6.41,0,0,0-7.59,4.89l-4.28,19.8a6.39,6.39,0,0,0,4.89,7.59h0A6.4,6.4,0,0,0,211.3,363.23Z"/><path class="cls-1" d="M241.81,406h0a9.26,9.26,0,0,1-11.23-6.67l-9.49-37.24a9.25,9.25,0,0,1,6.66-11.23h0A9.26,9.26,0,0,1,239,357.54l9.49,37.25A9.26,9.26,0,0,1,241.81,406Zm0-26-5-19.63a6.4,6.4,0,0,0-7.76-4.61h0a6.41,6.41,0,0,0-4.62,7.77l5,19.63a6.4,6.4,0,0,0,7.76,4.61h0A6.41,6.41,0,0,0,241.77,380Z"/><path class="cls-14" d="M489.31,663.18h0a12.35,12.35,0,0,1-15.07-8.72L461,604.94a12.35,12.35,0,0,1,8.73-15.07h0a12.33,12.33,0,0,1,15.06,8.72L498,648.11A12.34,12.34,0,0,1,489.31,663.18Zm-.44-34.68-7-26.11a8.54,8.54,0,0,0-10.42-6h0a8.54,8.54,0,0,0-6,10.42l7,26.11a8.53,8.53,0,0,0,10.42,6h0A8.54,8.54,0,0,0,488.87,628.5Z"/><line class="cls-20" x1="495.55" y1="570.97" x2="479.82" y2="590.52"/><path class="cls-1" d="M644.48,440.8c14.78,10.4,22.18,23.31,17.2,56.75-3,19.88-27.18,134.33-27.18,134.33-8.2-35.06-9.09-152,10-191.08"/><path class="cls-1" d="M646,567.51c-5.25-9.34-11.86-14.23-29.21-12.08-10.32,1.27-49.45,12.82-49.45,12.82,18.07,6,58.28,9.89,78.66-.74"/><path class="cls-1" d="M640.77,552.16c-8.29,6.79-12,14.15-6.83,30.87,3,9.94,21.21,46.47,21.21,46.47,2.75-18.84-.37-59.11-14.38-77.34"/><path class="cls-14" d="M523.47,489.59h0a12.35,12.35,0,0,1-16.85-4.4L480.72,441a12.34,12.34,0,0,1,4.41-16.84h0a12.34,12.34,0,0,1,16.84,4.4l25.9,44.23A12.35,12.35,0,0,1,523.47,489.59Zm-9.65-33.32L500.17,433a8.54,8.54,0,0,0-11.65-3h0a8.55,8.55,0,0,0-3,11.65l13.66,23.32a8.53,8.53,0,0,0,11.65,3h0A8.53,8.53,0,0,0,513.82,456.27Z"/><line class="cls-20" x1="489.42" y1="420.33" x2="498.52" y2="487.92"/><polygon class="cls-18" points="428.6 289.25 422.6 299.59 427.6 304.59 447.93 307.92 459.26 306.92 462.6 300.59 459.93 293.25 428.6 289.25"/><path class="cls-14" d="M408.65,295.07h0a9.27,9.27,0,0,1,10.15-8.22l38.22,4A9.26,9.26,0,0,1,465.23,301h0a9.27,9.27,0,0,1-10.15,8.22l-38.22-4A9.27,9.27,0,0,1,408.65,295.07Zm24.41,9,20.14,2.13a6.4,6.4,0,0,0,7-5.68h0a6.39,6.39,0,0,0-5.68-7l-20.14-2.13a6.41,6.41,0,0,0-7,5.68h0A6.41,6.41,0,0,0,433.06,304.06Z"/></svg>