<svg xmlns="http://www.w3.org/2000/svg" viewBox="0 0 1000 1000"><defs><style>.cls-1{fill:#a1aec7;}.cls-10,.cls-11,.cls-12,.cls-13,.cls-14,.cls-15,.cls-2,.cls-24,.cls-25,.cls-27,.cls-28,.cls-29,.cls-3,.cls-30,.cls-31,.cls-32,.cls-4,.cls-6,.cls-7,.cls-8,.cls-9{fill:none;}.cls-2,.cls-4{stroke:#a1aec7;}.cls-10,.cls-11,.cls-12,.cls-13,.cls-14,.cls-15,.cls-2,.cls-24,.cls-25,.cls-26,.cls-27,.cls-28,.cls-29,.cls-3,.cls-30,.cls-31,.cls-32,.cls-4,.cls-6,.cls-7,.cls-8,.cls-9{stroke-miterlimit:10;}.cls-2{stroke-width:50.58px;}.cls-11,.cls-12,.cls-13,.cls-14,.cls-15,.cls-24,.cls-27,.cls-28,.cls-3,.cls-31{stroke:#fff;}.cls-3{stroke-width:16.32px;}.cls-4{stroke-width:67.71px;}.cls-17,.cls-5{fill:#fff;}.cls-10,.cls-6,.cls-7,.cls-8,.cls-9{stroke:#1d1e1b;}.cls-11,.cls-12,.cls-13,.cls-14,.cls-15,.cls-6,.cls-7{stroke-width:8.97px;}.cls-7{stroke-dasharray:6.11 6.11;}.cls-10,.cls-8,.cls-9{stroke-width:9px;}.cls-9{stroke-dasharray:3.4 3.4;}.cls-10{stroke-dasharray:3.04 3.04;}.cls-12{stroke-dasharray:5.07 5.07;}.cls-13{stroke-dasharray:4.77 4.77;}.cls-14{stroke-dasharray:4.69 4.69;}.cls-15{stroke-dasharray:4.91 4.91;}.cls-16,.cls-18{fill:#1d1d1b;}.cls-17{font-size:37px;}.cls-17,.cls-18{font-family:AmericanTypewriter, American Typewriter;}.cls-18{font-size:30px;}.cls-19{letter-spacing:-0.04em;}.cls-20{letter-spacing:-0.01em;}.cls-21{letter-spacing:-0.01em;}.cls-22{letter-spacing:-0.02em;}.cls-23{letter-spacing:-0.01em;}.cls-24,.cls-25{stroke-width:8px;stroke-dasharray:6 4;}.cls-25,.cls-29,.cls-30,.cls-32{stroke:#000;}.cls-26{fill:#474747;stroke:#1d1d1b;stroke-width:6.34px;}.cls-27,.cls-28{stroke-width:6.34px;}.cls-28{stroke-dasharray:2.85 2.85;}.cls-29{stroke-width:3px;}.cls-30{stroke-width:3.26px;stroke-dasharray:7.94 2.8;}.cls-31{stroke-width:2px;}.cls-32{stroke-width:2.89px;}</style></defs><title>Tavola disegno 9Zippaldera</title><g id="Livello_1" data-name="Livello 1"><path class="cls-1" d="M571.9,286.42c0,.69,0,2.86.09,6,.33,17.55,1.41,66,1.41,66l63,147,52.49-85.49,9.66-111.16-66.65,3.16Z"/><path class="cls-2" d="M997.84,860.37c-34.41-60.92,15.31-89-19.1-149.93S894.61,677.6,860.2,616.67s15.31-89-19.1-149.93S757,433.9,722.55,373s15.31-89-19.1-149.94"/><path class="cls-3" d="M969.84,874.57c-32.55-61.26,64.56-112.88,32-174.13s-129.68-9.64-162.24-70.89,64.57-112.88,32-174.13-129.68-9.64-162.24-70.9,64.56-112.87,32-174.13"/><path class="cls-2" d="M843.11,916.27c-16.56-55.91,50.57-75.8,34-131.7s-83.7-36-100.26-91.93,50.57-75.79,34-131.7-83.7-36-100.26-91.93,50.57-75.8,34-131.71-83.69-36-100.26-91.93"/><path class="cls-3" d="M861.19,931.37c-20.84-68.16,57.55-92.12,36.71-160.29s-99.23-44.19-120.07-112.35,57.55-92.13,36.72-160.29-99.24-44.2-120.08-112.36S752,294,731.18,225.78"/><path class="cls-2" d="M576,244.73c-17.65,46.76-53.19,33.35-70.84,80.11s17.89,60.17.24,106.93-53.18,33.34-70.83,80.1,17.89,60.18.24,106.94-53.19,33.34-70.84,80.1,17.89,60.18.24,106.94S311.06,839.2,293.42,886"/><path class="cls-2" d="M566.14,242.46c-5.06,31.21-22.8,28.33-27.86,59.54s12.68,34.09,7.61,65.3-22.8,28.33-27.86,59.54,12.68,34.08,7.62,65.29-22.8,28.33-27.86,59.54,12.68,34.09,7.61,65.3-22.8,28.33-27.86,59.54,12.68,34.09,7.62,65.3-22.8,28.33-27.86,59.54,12.67,34.09,7.61,65.3S442.11,895,437.05,926.2"/><path class="cls-3" d="M562.4,317.45C555.49,361.26,516,355,509,398.83s32.63,50,25.73,93.85-46.45,37.57-53.36,81.38,32.63,50,25.73,93.84-46.45,37.57-53.36,81.38,32.63,50.05,25.72,93.86-46.44,37.57-53.35,81.38"/><path class="cls-4" d="M706,199.08c0-11.07,54-30.54,50.71-40.53-3.36-10.35-58.57,5.64-64.84-3S717.8,99.32,709.1,93s-43.86,39-54.22,35.65c-10-3.24-11.82-60.7-22.89-60.7s-12.91,57.46-22.9,60.7C598.74,132,563.49,86.71,554.88,93s23.52,53.89,17.18,62.59-61.47-7.37-64.83,3c-3.25,10,50.71,29.46,50.71,40.53"/><circle class="cls-5" cx="632.31" cy="233.01" r="82.47"/><path class="cls-1" d="M632.3,170.67h0A62.34,62.34,0,1,1,570,233a62.4,62.4,0,0,1,62.33-62.34m0-40.26A102.6,102.6,0,1,0,734.9,233a102.59,102.59,0,0,0-102.6-102.6Z"/><path class="cls-6" d="M678.41,280.12s-.84-.86-2.39-2.22"/><path class="cls-7" d="M671.28,274.06c-13.47-10.07-44.1-26.47-75.18,1.67"/><path class="cls-6" d="M593.87,277.83c-.77.75-1.53,1.52-2.3,2.32"/><path class="cls-8" d="M577.73,208.52s.45.39,1.28,1"/><path class="cls-9" d="M581.85,211.39c7,4.13,21.7,9.75,35.46-5"/><path class="cls-8" d="M618.45,205.11c.35-.4.69-.81,1-1.24"/><path class="cls-8" d="M637.69,205.77s.44.39,1.27,1"/><path class="cls-10" d="M641.47,208.47c7.09,4.42,22.95,11.26,37.16-4"/><path class="cls-8" d="M679.65,203.34c.35-.4.69-.81,1-1.24"/><path class="cls-11" d="M704.68,122.54s.81-.3,2.32-.77"/><path class="cls-12" d="M711.88,120.39c15.28-3.92,52.35-10.07,85.74,10.46"/><path class="cls-11" d="M799.78,132.21c.67.45,1.35.9,2,1.37"/><path class="cls-11" d="M661.08,116.63s0-.88.18-2.44"/><path class="cls-13" d="M661.94,109.48c2.71-15,14-49.35,60.6-64.2"/><path class="cls-11" d="M724.81,44.58l2.35-.67"/><path class="cls-11" d="M591.75,108.07s-.12-.86-.26-2.43"/><path class="cls-14" d="M591.18,101c-.71-15.72.75-53.61,28.62-73.43"/><path class="cls-11" d="M621.75,26.2c.68-.44,1.37-.87,2.08-1.29"/><path class="cls-11" d="M545.53,136.32s-.69-.5-1.89-1.54"/><path class="cls-15" d="M540,131.44c-9.75-9.69-29.46-34.2-33.79-77.3"/><path class="cls-11" d="M506,51.68c-.07-.81-.13-1.62-.19-2.44"/><path class="cls-5" d="M672.82,166.1h0a9.51,9.51,0,0,1-2.53-13.17l22.15-32.66a9.51,9.51,0,0,1,13.17-2.53h0a9.51,9.51,0,0,1,2.53,13.17L686,163.57A9.52,9.52,0,0,1,672.82,166.1Zm20-17.75,11.68-17.22a6.59,6.59,0,0,0-1.75-9.11h0a6.58,6.58,0,0,0-9.11,1.75L681.92,141a6.58,6.58,0,0,0,1.75,9.1h0A6.58,6.58,0,0,0,692.78,148.35Z"/><path class="cls-5" d="M649.61,177.81h0a9.5,9.5,0,0,1-7.66-11l7-38.85a9.51,9.51,0,0,1,11-7.66h0a9.51,9.51,0,0,1,7.65,11l-7,38.85A9.5,9.5,0,0,1,649.61,177.81Zm11-24.33L664.31,133a6.59,6.59,0,0,0-5.3-7.62h0a6.58,6.58,0,0,0-7.61,5.3l-3.68,20.48a6.58,6.58,0,0,0,5.3,7.61h0A6.57,6.57,0,0,0,660.63,153.48Z"/><path class="cls-5" d="M601.85,168.68h0a9.49,9.49,0,0,1-10.92-7.77L584.36,122a9.51,9.51,0,0,1,7.77-10.93h0a9.5,9.5,0,0,1,10.92,7.77l6.57,38.92A9.5,9.5,0,0,1,601.85,168.68ZM604,142.06l-3.47-20.51a6.57,6.57,0,0,0-7.55-5.38h0a6.58,6.58,0,0,0-5.38,7.56l3.46,20.51a6.59,6.59,0,0,0,7.56,5.38h0A6.58,6.58,0,0,0,604,142.06Z"/><path class="cls-5" d="M590.83,180.22h0a9.51,9.51,0,0,1-13.41-.08l-27.74-28.07a9.49,9.49,0,0,1,.08-13.4h0a9.5,9.5,0,0,1,13.4.07l27.75,28.08A9.5,9.5,0,0,1,590.83,180.22Zm-13.54-23-14.62-14.8a6.59,6.59,0,0,0-9.28-.06h0a6.58,6.58,0,0,0,0,9.28L568,166.41a6.59,6.59,0,0,0,9.28.06h0A6.57,6.57,0,0,0,577.29,157.2Z"/><polygon class="cls-5" points="580.07 201.05 574 212.07 575.69 214.5 577.73 214.5 585.25 203.87 580.07 201.05"/><polygon class="cls-5" points="678.26 196.07 686.25 205.69 683.98 208.88 673.5 200.57 678.26 196.07"/><path class="cls-3" d="M551,317.71c-11.85,29.22-28.5,22.47-40.36,51.69s4.8,36-7.06,65.2S475,457.07,463.16,486.29s4.8,36-7.06,65.2S427.59,574,415.74,603.18s4.8,36-7.06,65.2-28.51,22.47-40.37,51.69,4.8,36-7.06,65.2-28.51,22.47-40.36,51.7,4.79,36-7.07,65.2"/><path class="cls-16" d="M91.94,526.13c15.13,13,19.25,29.82,11.54,51.77-4.29,12.2-11.54,32.26-11.54,32.26"/><rect class="cls-16" x="104.92" y="564.13" width="36.83" height="46.03" transform="translate(246.66 1174.29) rotate(180)"/><path class="cls-16" d="M162.44,526.13c15.13,13,19.25,29.82,11.53,51.77-4.29,12.2-11.53,32.26-11.53,32.26"/><rect class="cls-16" x="175.41" y="564.13" width="36.83" height="46.03" transform="translate(387.66 1174.29) rotate(180)"/><path class="cls-16" d="M777.3,832.23l-15.91-76.32-7.89-66.33,14-51-34.84-198.9L747.5,394.3s-35-93,0-96c11.36-1-32,4-32,4l-60.18,72.93-16.56,46.36s-1.26,9.71-2.26,6.71-9.06-9.67-9.06-9.67L609.31,373l-18.12-22.66-18.69-29-44-20c10,1,39,18,13,112-3.55,12.82,20.17,42.88,20.17,42.88-3.52,7.3,6.83,57.4,6.83,57.4,8.09,45.53-13.3,89.41-10,135,1,13.23,19.07,74.1,20,87,10.16,141.08,7.21,205.35,6.85,210.94-4.94,76.57-4.41,96.84,24.32,114.13,65.31,39.29,199.49-15,199.49-15l-39-190.49Z"/><text class="cls-17" transform="matrix(0.12, 0.99, -0.99, 0.12, 628.26, 452.94)">zzzzzzzzzzzzzzzzziiiiiiiippp</text><text class="cls-18" transform="translate(83.13 218.65)">Incidente <tspan class="cls-19" x="143.46" y="0">a</tspan><tspan x="159.3" y="0">v</tspan><tspan class="cls-20" x="177.33" y="0">v</tspan><tspan x="194.94" y="0">enuto</tspan><tspan x="0" y="36">in prossimità</tspan><tspan x="0" y="72">dell’innesto N°32</tspan><tspan x="0" y="108">della Zip Aldera</tspan><tspan x="0" y="144">all’altezza della</tspan><tspan x="0" y="180">botte</tspan><tspan class="cls-21" x="73.14" y="180">g</tspan><tspan x="89.16" y="180">a Anticazeppa.</tspan><tspan x="0" y="216">30 cm di coda.</tspan><tspan x="0" y="252">---------------------------</tspan><tspan x="0" y="288">Og</tspan><tspan class="cls-22" x="36.03" y="288">g</tspan><tspan x="51.87" y="288">etti rin</tspan><tspan class="cls-23" x="151.65" y="288">v</tspan><tspan x="169.26" y="288">enuti:</tspan></text><path class="cls-16" d="M636.62,428.13c9.83-80.76,110.49-255.14,158.9-53.2l24.56-33.14C882.77,262.66,688.39,270.84,636.62,428.13Z"/><path class="cls-24" d="M636.5,428.3c9.82-80.76,110.49-255.14,158.89-53.2"/><path class="cls-16" d="M631.62,432.13C621.8,351.37,521.13,177,472.73,378.93l-33.57-45.29C395.3,270.11,579.85,274.84,631.62,432.13Z"/><path class="cls-24" d="M631.75,432.3c-9.83-80.76-110.5-255.14-158.9-53.2"/><line class="cls-25" x1="89.62" y1="134.97" x2="334.36" y2="60.65"/><path class="cls-25" d="M89.62,135s131.89-35,183-30.2,46.13,66.78,46.13,66.78"/><path class="cls-5" d="M607.11,473.83h0a9.89,9.89,0,0,1-2.63-13.69l23-34a9.89,9.89,0,0,1,13.69-2.63h0a9.87,9.87,0,0,1,2.63,13.68l-23,34A9.89,9.89,0,0,1,607.11,473.83Zm20.73-18.47L640,437.45a6.83,6.83,0,0,0-1.83-9.46h0a6.83,6.83,0,0,0-9.46,1.82l-12.12,17.91a6.82,6.82,0,0,0,1.82,9.46h0A6.83,6.83,0,0,0,627.84,455.36Z"/><rect class="cls-26" x="92.54" y="647.3" width="41.73" height="79.26" rx="4.46" ry="4.46" transform="translate(-60.5 12.77) rotate(-5.09)"/><path class="cls-27" d="M105.91,696.12a11.49,11.49,0,0,1-1.13-.94"/><path class="cls-28" d="M102.94,693a12.41,12.41,0,1,1,14.68,4.77"/><path class="cls-27" d="M116.27,698.19a11.93,11.93,0,0,1-1.45.27"/><path class="cls-5" d="M103.67,717h0a4.54,4.54,0,0,1-3.72-5.2l3.1-18.56a4.54,4.54,0,0,1,5.2-3.72h0a4.55,4.55,0,0,1,3.72,5.21l-3.1,18.55A4.53,4.53,0,0,1,103.67,717Zm5.11-11.66,1.64-9.79a3.14,3.14,0,0,0-2.57-3.59h0a3.13,3.13,0,0,0-3.6,2.57l-1.63,9.78a3.14,3.14,0,0,0,2.57,3.6h0A3.14,3.14,0,0,0,108.78,705.34Z"/><path class="cls-5" d="M611,199.45s11.75,13.86,12.15,13.86,13.6.79,13.6.79l7.53-14.26Z"/><path class="cls-16" d="M697.46,323.24h0a9.52,9.52,0,0,1-12.11-5.77l-13.19-37.2a9.5,9.5,0,0,1,5.76-12.1h0A9.52,9.52,0,0,1,690,273.93l13.19,37.2A9.51,9.51,0,0,1,697.46,323.24ZM695,296.64,688,277a6.58,6.58,0,0,0-8.37-4h0a6.59,6.59,0,0,0-4,8.38l7,19.6a6.57,6.57,0,0,0,8.37,4h0A6.57,6.57,0,0,0,695,296.64Z"/><line class="cls-29" x1="125.72" y1="98.71" x2="153.77" y2="33.55"/><polygon points="136.55 100.03 119.77 112.55 117.32 91.75 136.55 100.03"/><path class="cls-16" d="M154.22,810.92h0a6.63,6.63,0,0,1,8.94-2.74l24.32,12.93a6.64,6.64,0,0,1,2.74,8.95h0a6.64,6.64,0,0,1-8.95,2.73L157,819.86A6.62,6.62,0,0,1,154.22,810.92Z"/><line class="cls-30" x1="293.36" y1="603.75" x2="144.27" y2="894.05"/><line class="cls-30" x1="293.63" y1="589.8" x2="139.02" y2="891.8"/><line class="cls-30" x1="299.28" y1="565.84" x2="128.79" y2="898.95"/><line class="cls-30" x1="298.76" y1="552.46" x2="122.55" y2="896.64"/><path class="cls-16" d="M298.46,544.59h0a6.63,6.63,0,0,1,9.31.87l17.59,21.19a6.64,6.64,0,0,1-.87,9.32h0a6.63,6.63,0,0,1-9.31-.87l-17.59-21.19A6.64,6.64,0,0,1,298.46,544.59Zm18,14.55L307.2,548a4.58,4.58,0,0,0-6.44-.6h0a4.58,4.58,0,0,0-.6,6.44L309.43,565a4.59,4.59,0,0,0,6.45.6h0A4.6,4.6,0,0,0,316.48,559.14Z"/><path class="cls-16" d="M297.38,563.79h0a6.63,6.63,0,0,1,8.87,3l12.27,24.66a6.65,6.65,0,0,1-3,8.87h0a6.63,6.63,0,0,1-8.87-3l-12.26-24.66A6.64,6.64,0,0,1,297.38,563.79Zm14.21,18.29-6.46-13A4.6,4.6,0,0,0,299,567h0a4.59,4.59,0,0,0-2.06,6.13l6.46,13a4.58,4.58,0,0,0,6.14,2.06h0A4.59,4.59,0,0,0,311.59,582.08Z"/><path class="cls-16" d="M295.52,584.69h0a6.63,6.63,0,0,1,9.34.4l18.63,20.3a6.62,6.62,0,0,1-.41,9.34h0a6.63,6.63,0,0,1-9.34-.4L295.12,594A6.64,6.64,0,0,1,295.52,584.69Zm18.72,13.64-9.82-10.7a4.58,4.58,0,0,0-6.46-.28h0a4.59,4.59,0,0,0-.28,6.47l9.82,10.69a4.58,4.58,0,0,0,6.46.28h0A4.58,4.58,0,0,0,314.24,598.33Z"/><path class="cls-16" d="M292.85,602.83h0a6.63,6.63,0,0,1,8.19,4.53l7.61,26.47a6.65,6.65,0,0,1-4.53,8.19h0a6.64,6.64,0,0,1-8.19-4.54L288.32,611A6.62,6.62,0,0,1,292.85,602.83Zm10.67,20.55-4-14a4.58,4.58,0,0,0-5.66-3.13h0a4.59,4.59,0,0,0-3.14,5.66l4,13.95a4.61,4.61,0,0,0,5.67,3.14h0A4.59,4.59,0,0,0,303.52,623.38Z"/><line class="cls-31" x1="161.43" y1="811.76" x2="185.78" y2="824.7"/><line class="cls-31" x1="158.84" y1="816.63" x2="183.19" y2="829.57"/><path class="cls-16" d="M137.46,844h0a6.65,6.65,0,0,1,8.95-2.74l24.31,12.93a6.63,6.63,0,0,1,2.74,8.95h0a6.64,6.64,0,0,1-9,2.73L140.19,853A6.64,6.64,0,0,1,137.46,844Z"/><path class="cls-16" d="M112.82,890.37l2.89-5.42a3.56,3.56,0,0,0,4.79-1.47l29.74,15.82a3.54,3.54,0,0,0,1.47,4.79l-2.89,5.42A3.56,3.56,0,0,0,144,911l-29.74-15.82A3.55,3.55,0,0,0,112.82,890.37Z"/><line class="cls-31" x1="144.68" y1="844.85" x2="169.02" y2="857.79"/><line class="cls-31" x1="142.09" y1="849.72" x2="166.44" y2="862.66"/><circle class="cls-5" cx="118.52" cy="889.8" r="2.25"/><circle class="cls-5" cx="146.77" cy="904.3" r="2.25"/><path class="cls-32" d="M193.24,801.47l49.5,9.66L181.29,847.8l-1,134.75s-43.62-65.12-138.5-75l97.93-83,3.07-71L174.91,795"/></g></svg>