<svg id="Livello_1" data-name="Livello 1" xmlns="http://www.w3.org/2000/svg" viewBox="0 0 1000 1000"><defs><style>.cls-1{fill:#1d1d1b;}.cls-2{font-size:30px;font-family:AmericanTypewriter, American Typewriter;}.cls-2,.cls-5{fill:#fff;}.cls-3{letter-spacing:-0.03em;}.cls-4{letter-spacing:0.02em;}.cls-6{fill:#ff0600;}.cls-10,.cls-11,.cls-12,.cls-13,.cls-14,.cls-15,.cls-16,.cls-7,.cls-8,.cls-9{fill:none;}.cls-7{stroke:#ff0600;stroke-width:40px;stroke-dasharray:30 20;}.cls-10,.cls-11,.cls-12,.cls-13,.cls-14,.cls-15,.cls-16,.cls-17,.cls-7,.cls-8,.cls-9{stroke-miterlimit:10;}.cls-10,.cls-11,.cls-12,.cls-13,.cls-14,.cls-8,.cls-9{stroke:#fff;}.cls-10,.cls-11,.cls-12,.cls-13,.cls-14,.cls-15,.cls-16,.cls-8,.cls-9{stroke-width:6.25px;}.cls-9{stroke-dasharray:3.42 3.42;}.cls-10{stroke-dasharray:3.35 3.35;}.cls-11{stroke-dasharray:3.44 3.44;}.cls-12{stroke-dasharray:3.41 3.41;}.cls-13{stroke-dasharray:3.44 3.44;}.cls-14{stroke-dasharray:3.44 3.44;}.cls-15,.cls-16,.cls-17{stroke:#000;}.cls-16{stroke-dasharray:4.26 4.26;}.cls-17{stroke-width:2px;}</style></defs><title>Tavola disegno 11Zippaldera</title><rect class="cls-1" width="1000.06" height="1000"/><text class="cls-2" transform="translate(565.02 101.64)">Ciao! sono<tspan x="0" y="27">La</tspan><tspan class="cls-3" x="36.03" y="27">m</tspan><tspan x="63.09" y="27">pozippo</tspan><tspan class="cls-4" x="0" y="54">R</tspan><tspan x="22.32" y="54">o</tspan><tspan class="cls-3" x="38.7" y="54">m</tspan><tspan x="65.76" y="54">pizippe</tspan></text><path class="cls-5" d="M769.07,66.72H684.81l.63,2.32,67-46.35a1.25,1.25,0,0,0-1.26-2.16L673.53,58.3l-15.31,7.44c-.44.21-2.59,1.18-2.05,1.06a15.68,15.68,0,0,0-2.69-.08H565a1.25,1.25,0,0,0,0,2.5h85.76c2.22,0,4.63.33,6.73-.37,4-1.31,7.87-3.82,11.61-5.64L717.2,39.84l35.29-17.15-1.26-2.16L684.18,66.89a1.26,1.26,0,0,0,.63,2.33h84.26a1.25,1.25,0,0,0,0-2.5Z"/><path class="cls-5" d="M645.79,614.2c4.58-18,35.53-37.79,69.43-45.22,20.16-4.41,138.85-23,138.85-23-30.65,20.67-167.28,68.41-208.28,68.19"/><path class="cls-5" d="M769.17,560.9c-.39,8.89,2.43,15.22,17,21.25,8.67,3.59,44.81,12.44,44.81,12.44-11.25-12.09-40.8-32.34-61.84-33.69"/><path class="cls-5" d="M786.75,563.46c-1.7-6.15-.21-11,11.63-17.48,7-3.85,37.31-15.63,37.31-15.63-8,10.18-30.73,28.9-48.94,33.11"/><path class="cls-5" d="M786.75,563.46c-4.2-4.8-5-9.83,2.91-20.8,4.68-6.52,26.84-30.25,26.84-30.25-2.78,12.64-15.16,39.37-29.75,51.05"/><path class="cls-5" d="M786.75,563.46c-6-2.29-9-6.38-7.13-19.75,1.1-8,9.63-39.28,9.63-39.28,3.43,12.48,5,41.89-2.5,59"/><path class="cls-5" d="M227.65,608.7c-5.12-17.84-15.15-29.37-49.26-35.78C158.1,569.1,38.91,554.08,38.91,554.08c31.25,19.75,144.45,60,188.74,54.62"/><path class="cls-5" d="M124.22,566.44c.65,8.87-2,15.29-16.39,21.75C99.27,592,63.41,602,63.41,602c10.89-12.41,39.82-33.54,60.81-35.51"/><path class="cls-5" d="M106.72,569.52c1.52-6.2-.11-11-12.15-17.13-7.15-3.63-37.75-14.51-37.75-14.51,8.29,9.94,31.58,28,49.9,31.64"/><path class="cls-5" d="M106.72,569.52c4.06-4.92,4.67-10-3.52-20.7-4.88-6.38-27.74-29.44-27.74-29.44,3.17,12.55,16.34,38.9,31.26,50.14"/><path class="cls-5" d="M106.72,569.52c5.89-2.46,8.78-6.64,6.54-19.95-1.33-7.92-10.79-39-10.79-39-3.06,12.58-3.7,42,4.25,58.93"/><path class="cls-5" d="M567,574.75c8.22,12.84,29.87,84.33-38.21,141.45C466.89,768.13,387.6,845.12,387.6,845.12"/><path class="cls-5" d="M576.18,597.2s-44.67,45.53-74.8,90.71c-11.45,17.17-117.22,162.46-117.22,162.46"/><path class="cls-5" d="M384.16,850.37c18.26,3.31,30.73,12.15,40.52,45.45,5.81,19.8,17.6,99.44,17.6,99.44-22.76-29.13-59-100.28-58.12-144.89"/><path class="cls-5" d="M384.16,850.37c18.26,3.31,30.73,12.15,40.52,45.45,5.81,19.8,17.6,99.44,17.6,99.44"/><path class="cls-6" d="M384.16,850.37c19.76,24.39,21.41,51.55,3.31,83.36-10.07,17.68-26.91,46.7-26.91,46.7"/><rect class="cls-6" x="391.28" y="918.26" width="57.93" height="72.41" transform="translate(663.35 1968.62) rotate(-169.72)"/><circle class="cls-5" cx="420.7" cy="943.96" r="7.48" transform="translate(-569.47 647.97) rotate(-49.34)"/><circle class="cls-5" cx="488.07" cy="905.24" r="7.48" transform="translate(-516.63 685.58) rotate(-49.34)"/><circle class="cls-5" cx="452.34" cy="937.97" r="5.34" transform="matrix(0.65, -0.76, 0.76, 0.65, -553.9, 669.88)"/><circle class="cls-5" cx="478.66" cy="932.66" r="5.34" transform="translate(-540.71 687.99) rotate(-49.34)"/><circle class="cls-5" cx="100.35" cy="697.94" r="5.34" transform="translate(-494.46 319.26) rotate(-49.34)"/><circle class="cls-5" cx="548.26" cy="877.72" r="5.34" transform="translate(-474.79 721.65) rotate(-49.34)"/><path class="cls-5" d="M363.49,602c-16-5.79-66.07-24.64-118.7,64.25C234.28,684,136.2,846.94,136.2,846.94"/><path class="cls-5" d="M136.2,846.94c-6.24-17.48-17-28.35-51.44-32.58-20.49-2.51-101-1.17-101-1.17C16.23,830.9,92.34,855.11,136.2,846.94"/><path class="cls-5" d="M136.2,846.94c-6.24-17.48-17-28.35-51.44-32.58-20.49-2.51-101-1.17-101-1.17"/><path class="cls-6" d="M136.2,846.94c-27.28-15.52-54.35-12.74-82.78,10.31-15.81,12.81-41.7,34.16-41.7,34.16"/><rect class="cls-6" x="-1.35" y="792.08" width="57.93" height="72.41" transform="matrix(0.34, 0.94, -0.94, 0.34, 798.34, 523.65)"/><circle class="cls-5" cx="37.91" cy="826.12" r="7.48" transform="translate(-348.64 95.03) rotate(-25.24)"/><circle class="cls-5" cx="47.92" cy="739.37" r="5.34" transform="translate(-310.7 91.02) rotate(-25.24)"/><circle class="cls-5" cx="27.83" cy="804.27" r="5.34" transform="translate(-340.29 88.65) rotate(-25.24)"/><circle class="cls-5" cx="31.53" cy="759.91" r="5.34" transform="translate(-321.02 85.99) rotate(-25.24)"/><rect class="cls-6" x="347.2" y="321.9" width="32.59" height="126.77" transform="translate(-34.52 35.78) rotate(-5.38)"/><rect class="cls-6" x="292.1" y="343.12" width="32.59" height="126.77" transform="translate(-152.48 187.53) rotate(-27.4)"/><rect class="cls-6" x="248.97" y="383.45" width="32.59" height="126.77" transform="translate(-246.66 357.64) rotate(-49.42)"/><rect class="cls-6" x="443.62" y="390.41" width="32.59" height="126.77" transform="translate(470.61 -192.22) rotate(46.33)"/><rect class="cls-6" x="426.13" y="328.52" width="32.59" height="126.77" transform="translate(200.58 -147.39) rotate(24.31)"/><line class="cls-7" x1="945.51" y1="-9.73" x2="4.41" y2="1011.55"/><line class="cls-7" x1="980.05" x2="249.53" y2="1001.43"/><circle class="cls-5" cx="374.8" cy="513.57" r="60.99"/><path class="cls-6" d="M374.8,463.08a50.49,50.49,0,1,1-50.49,50.49,50.55,50.55,0,0,1,50.49-50.49m0-21a71.49,71.49,0,1,0,71.49,71.49,71.49,71.49,0,0,0-71.49-71.49Z"/><line class="cls-8" x1="437.74" y1="446.48" x2="438.95" y2="445.29"/><line class="cls-9" x1="441.39" y1="442.88" x2="498.54" y2="386.41"/><line class="cls-8" x1="499.75" y1="385.21" x2="500.97" y2="384.01"/><line class="cls-8" x1="346.54" y1="426.52" x2="346.34" y2="424.82"/><line class="cls-10" x1="345.95" y1="421.5" x2="332.81" y2="310.14"/><line class="cls-8" x1="332.61" y1="308.48" x2="332.41" y2="306.79"/><path class="cls-5" d="M499.45,390h0a6.61,6.61,0,0,1-1.76-9.17L513.12,358a6.63,6.63,0,0,1,9.18-1.76h0a6.64,6.64,0,0,1,1.76,9.18l-15.44,22.76A6.62,6.62,0,0,1,499.45,390Zm13.9-12.36,8.14-12a4.59,4.59,0,0,0-1.22-6.35h0a4.58,4.58,0,0,0-6.34,1.22l-8.14,12a4.58,4.58,0,0,0,1.22,6.34h0A4.57,4.57,0,0,0,513.35,377.61Z"/><line class="cls-8" x1="654.21" y1="674.67" x2="655.07" y2="676.14"/><line class="cls-11" x1="656.82" y1="679.11" x2="708.48" y2="766.53"/><line class="cls-8" x1="709.35" y1="768.01" x2="710.22" y2="769.48"/><path class="cls-5" d="M706.42,770.51h0a6.62,6.62,0,0,1,9.32.64l18.07,20.73a6.63,6.63,0,0,1-.64,9.32h0a6.63,6.63,0,0,1-9.32-.64l-18.07-20.73A6.62,6.62,0,0,1,706.42,770.51Zm8.41,16.6L724.35,798a4.59,4.59,0,0,0,6.45.44h0a4.59,4.59,0,0,0,.44-6.45l-9.52-10.92a4.57,4.57,0,0,0-6.45-.44h0A4.57,4.57,0,0,0,714.83,787.11Z"/><path class="cls-8" d="M678.21,824.2a16,16,0,0,0-.39,1.66"/><path class="cls-12" d="M677.55,829.25c.55,27.47,64.56,59.94,79.46,67.12"/><path class="cls-8" d="M758.55,897.11l1.54.72"/><path class="cls-5" d="M756.76,900h0a6.64,6.64,0,0,1,9.09-2.18l23.46,14.35a6.63,6.63,0,0,1,2.18,9.08h0a6.62,6.62,0,0,1-9.08,2.19L759,909A6.64,6.64,0,0,1,756.76,900Zm13,13.32,12.37,7.57a4.58,4.58,0,0,0,6.28-1.52h0a4.58,4.58,0,0,0-1.51-6.28l-12.37-7.57a4.58,4.58,0,0,0-6.28,1.52h0A4.58,4.58,0,0,0,769.77,913.27Z"/><path class="cls-8" d="M156.82,318.68c.15-.56.29-1.12.41-1.66"/><path class="cls-13" d="M157.92,313.65c9.28-54.33-87-23.6-106-17"/><path class="cls-8" d="M50.31,297.17l-1.6.58"/><path class="cls-5" d="M50.46,294.21h0a6.62,6.62,0,0,1-6.65,6.56l-27.5-.22a6.63,6.63,0,0,1-6.56-6.66h0a6.63,6.63,0,0,1,6.66-6.55l27.5.22A6.61,6.61,0,0,1,50.46,294.21Zm-18-4.71L18,289.39a4.58,4.58,0,0,0-4.6,4.53h0a4.59,4.59,0,0,0,4.53,4.61l14.49.11A4.58,4.58,0,0,0,37,294.11h0A4.58,4.58,0,0,0,32.46,289.5Z"/><path class="cls-5" d="M334,306.69h0a6.62,6.62,0,0,1-7.61-5.41l-4.58-27.12a6.63,6.63,0,0,1,5.42-7.61h0a6.63,6.63,0,0,1,7.61,5.41l4.58,27.12A6.63,6.63,0,0,1,334,306.69Zm1.5-18.55-2.41-14.29a4.59,4.59,0,0,0-5.26-3.75h0a4.59,4.59,0,0,0-3.75,5.27l2.41,14.29a4.59,4.59,0,0,0,5.27,3.75h0A4.58,4.58,0,0,0,335.47,288.14Z"/><path class="cls-8" d="M174.64,415.7l-1.32-1.08"/><path class="cls-14" d="M170.65,412.45C45,311.18,78.31,440,84.86,462.6"/><path class="cls-8" d="M85.34,464.25l.5,1.63"/><path class="cls-5" d="M84.21,464.66h0a6.62,6.62,0,0,1-2.56,9L57.62,487a6.63,6.63,0,0,1-9-2.56h0a6.63,6.63,0,0,1,2.55-9l24-13.37A6.62,6.62,0,0,1,84.21,464.66Zm-18,4.78-12.67,7.05a4.59,4.59,0,0,0-1.77,6.21h0A4.58,4.58,0,0,0,58,484.47l12.67-7a4.6,4.6,0,0,0,1.77-6.22h0A4.59,4.59,0,0,0,66.22,469.44Z"/><path class="cls-15" d="M409.51,519.18s-.76-.34-2.11-.82"/><path class="cls-16" d="M403.34,517.1c-11.31-3-35.37-5.76-48.23,20.48"/><path class="cls-15" d="M354.2,539.51c-.3.68-.59,1.38-.88,2.1"/><path d="M444.85,530.76h0a6.63,6.63,0,0,1-8.31,4.27l-26.19-8.39a6.63,6.63,0,0,1-4.27-8.31h0a6.63,6.63,0,0,1,8.31-4.27l26.19,8.39A6.63,6.63,0,0,1,444.85,530.76Zm-15.79-9.86-13.8-4.43a4.6,4.6,0,0,0-5.75,3h0a4.6,4.6,0,0,0,3,5.75l13.8,4.42a4.58,4.58,0,0,0,5.75-3h0A4.58,4.58,0,0,0,429.06,520.9Z"/><rect class="cls-17" x="358.98" y="502.19" width="5.18" height="1.99" transform="translate(958.15 335.76) rotate(110.02)"/><rect class="cls-17" x="355.36" y="500.87" width="5.18" height="1.99" transform="translate(952.05 337.39) rotate(110.02)"/><rect class="cls-17" x="351.74" y="499.55" width="5.18" height="1.99" transform="translate(945.95 339.02) rotate(110.02)"/><rect class="cls-17" x="348.12" y="498.23" width="5.18" height="1.99" transform="translate(939.85 340.65) rotate(110.02)"/><rect class="cls-17" x="344.5" y="496.91" width="5.18" height="1.99" transform="translate(933.75 342.28) rotate(110.02)"/><rect class="cls-17" x="340.88" y="495.59" width="5.18" height="1.99" transform="translate(927.65 343.91) rotate(110.02)"/><rect class="cls-17" x="337.26" y="494.28" width="5.18" height="1.99" transform="translate(921.55 345.54) rotate(110.02)"/><rect class="cls-17" x="333.64" y="492.96" width="5.18" height="1.99" transform="translate(915.46 347.17) rotate(110.02)"/><rect class="cls-17" x="330.02" y="491.64" width="5.18" height="1.99" transform="translate(909.36 348.8) rotate(110.02)"/><rect class="cls-17" x="349.78" y="482.43" width="5.18" height="1.99" transform="translate(186.78 -91.42) rotate(20.02)"/><rect class="cls-17" x="348.46" y="486.05" width="5.18" height="1.99" transform="translate(187.94 -90.75) rotate(20.02)"/><rect class="cls-17" x="347.14" y="489.67" width="5.18" height="1.99" transform="translate(189.1 -90.08) rotate(20.02)"/><rect class="cls-17" x="345.82" y="493.29" width="5.18" height="1.99" transform="translate(190.26 -89.41) rotate(20.02)"/><rect class="cls-17" x="344.5" y="496.91" width="5.18" height="1.99" transform="matrix(0.94, 0.34, -0.34, 0.94, 191.42, -88.74)"/><rect class="cls-17" x="343.18" y="500.53" width="5.18" height="1.99" transform="translate(192.58 -88.07) rotate(20.02)"/><rect class="cls-17" x="341.87" y="504.15" width="5.18" height="1.99" transform="translate(193.74 -87.4) rotate(20.02)"/><rect class="cls-17" x="340.55" y="507.77" width="5.18" height="1.99" transform="translate(194.9 -86.73) rotate(20.02)"/><rect class="cls-17" x="339.23" y="511.39" width="5.18" height="1.99" transform="translate(196.06 -86.06) rotate(20.02)"/><rect class="cls-17" x="388.98" y="488.22" width="5.18" height="1.99" transform="translate(985.29 288.82) rotate(110.02)"/><rect class="cls-17" x="385.36" y="486.9" width="5.18" height="1.99" transform="translate(979.19 290.45) rotate(110.02)"/><rect class="cls-17" x="381.74" y="485.58" width="5.18" height="1.99" transform="translate(973.09 292.08) rotate(110.02)"/><rect class="cls-17" x="378.12" y="484.26" width="5.18" height="1.99" transform="translate(966.99 293.71) rotate(110.02)"/><rect class="cls-17" x="374.5" y="482.94" width="5.18" height="1.99" transform="translate(960.89 295.34) rotate(110.02)"/><rect class="cls-17" x="370.88" y="481.62" width="5.18" height="1.99" transform="translate(954.79 296.97) rotate(110.02)"/><rect class="cls-17" x="367.26" y="480.3" width="5.18" height="1.99" transform="translate(948.69 298.6) rotate(110.02)"/><rect class="cls-17" x="363.64" y="478.98" width="5.18" height="1.99" transform="translate(942.59 300.24) rotate(110.02)"/><rect class="cls-17" x="360.02" y="477.66" width="5.18" height="1.99" transform="translate(936.49 301.87) rotate(110.02)"/><rect class="cls-17" x="379.77" y="468.46" width="5.18" height="1.99" transform="translate(183.81 -102.53) rotate(20.02)"/><rect class="cls-17" x="378.46" y="472.08" width="5.18" height="1.99" transform="translate(184.97 -101.86) rotate(20.02)"/><rect class="cls-17" x="377.14" y="475.7" width="5.18" height="1.99" transform="translate(186.13 -101.19) rotate(20.02)"/><rect class="cls-17" x="375.82" y="479.32" width="5.18" height="1.99" transform="matrix(0.94, 0.34, -0.34, 0.94, 187.29, -100.52)"/><rect class="cls-17" x="374.5" y="482.94" width="5.18" height="1.99" transform="translate(188.45 -99.85) rotate(20.02)"/><rect class="cls-17" x="373.18" y="486.56" width="5.18" height="1.99" transform="translate(189.61 -99.18) rotate(20.02)"/><rect class="cls-17" x="371.86" y="490.18" width="5.18" height="1.99" transform="translate(190.77 -98.51) rotate(20.02)"/><rect class="cls-17" x="370.54" y="493.8" width="5.18" height="1.99" transform="translate(191.93 -97.84) rotate(20.02)"/><rect class="cls-17" x="369.22" y="497.42" width="5.18" height="1.99" transform="translate(193.09 -97.17) rotate(20.02)"/></svg>