<?xml version="1.0" encoding="utf-8"?>
<!-- Generator: Adobe Illustrator 28.0.0, SVG Export Plug-In . SVG Version: 6.00 Build 0)  -->
<svg version="1.1" id="Livello_1" xmlns="http://www.w3.org/2000/svg" xmlns:xlink="http://www.w3.org/1999/xlink" x="0px" y="0px"
	 viewBox="0 0 1417.3 992.1" enable-background="new 0 0 1417.3 992.1" xml:space="preserve">
<g>
	<g>
		<g>
			<g>
				<path d="M853.6,481.3c-2.7-8.5-6-23.3,4-37.3c-0.8,41.4,24.9,66.7,59.1,55.7c9-2.9,17.1-7.4,24.2-13.7
					c-6.2,9.8-16.7,16.6-29.6,20.7C886.2,514.7,861.5,505.9,853.6,481.3z M894.8,420.8l59.4-19l-20.9,15.6l36,112.7l23.5-7.5
					L963,541l-38.6-120.8l-64.2,20.5C865.7,434.6,874.7,427.2,894.8,420.8z"/>
			</g>
		</g>
		<g>
			<g>
				<path d="M861.4,472.4l-1.7-5.5c5.5-0.6,10.8-0.3,16,0.9L861.4,472.4z M878.3,467c1.5-1.9,3-3.5,4.4-5c1.4-1.4,3.2-2.8,5.2-4.1
					c2.1-1.3,4.5-2.5,7.4-3.4c2.8-0.9,5.5-1.4,8-1.5s4.7,0,6.7,0.3s4.1,0.8,6.5,1.5L878.3,467z"/>
			</g>
		</g>
		<g>
			<g>
				<path d="M989.3,682.1l-22.8-71.4L850,648l3,56.8l-39.8-124.7l30.5,48l251.9-80.5l-3-56.8l23.1,72.2l-128.5,41.1l22.7,70.9
					l177.7,89.1c-76.8,2.8-147.7-45.7-190.2-92.7c-4.2,77.2-33.7,165.7-93.9,205.8L989.3,682.1z"/>
			</g>
		</g>
		<g>
			<g>
				<path d="M732,806.8c-15.7,29.1-37.9,52.9-63.2,69.3L755.2,716C755.3,746.1,747.9,777.4,732,806.8z M763.6,700.3l34.8-64.4
					l20,10.8L763.6,700.3z"/>
			</g>
		</g>
	</g>
	<g>
		<g>
			<path d="M318.2,464.9h-70.8V598l-35.6-8.9h25.9V464.9l-25.9-8.9h65.5C299.4,456,310.8,460.4,318.2,464.9z M288.1,547.1
				c-14.2,0-26.9-3.4-36.2-11.2c9.1,4,18.7,5.9,28.6,5.9c37.7,0,55.3-33.5,41.3-74.6c14.4,10.8,15.9,26.7,15.9,36
				C337.7,530.4,315.9,547.1,288.1,547.1z"/>
		</g>
	</g>
	<g>
		<g>
			<path d="M300.2,492.7h-46.3c6.7-3.7,14.7-5.8,23.1-5.8C285.6,486.9,293.4,489.1,300.2,492.7z M323.3,486.9v5.8h-18.6L323.3,486.9
				z"/>
		</g>
	</g>
	<g>
		<g>
			<path d="M74.3,586.9l8.9-29.3l127,38.4L74.3,586.9z M659.6,758.9l-388-117.5l-52.4,62l29-95.8L731.6,754l-141.9,70.4L659.6,758.9
				z"/>
		</g>
	</g>
	<g>
		<g>
			<path d="M95.9,939.1l165.3-138.8l-8.1,34.1V712.2l8.1,34.1L95.9,607.5h334.5L265.1,746.3l8.1-34.1v122.2l-8.1-34.1l165.3,138.8
				L95.9,939.1L95.9,939.1z"/>
		</g>
	</g>
</g>
<line fill="none" stroke="#000000" stroke-width="7.0927" stroke-miterlimit="10" x1="0" y1="935.5" x2="1417.3" y2="935.5"/>
</svg>
