<?xml version="1.0" encoding="utf-8"?>
<!-- Generator: Adobe Illustrator 28.0.0, SVG Export Plug-In . SVG Version: 6.00 Build 0)  -->
<svg version="1.1" id="Livello_1" xmlns="http://www.w3.org/2000/svg" xmlns:xlink="http://www.w3.org/1999/xlink" x="0px" y="0px"
	 viewBox="0 0 1417.3 992.1" enable-background="new 0 0 1417.3 992.1" xml:space="preserve">
<g>
	<g>
		<g>
			<g>
				<g>
					<g>
						<path d="M268.2,702.2l19.5-14.2l45.1,63.4L268.2,702.2z M343.7,766.8l112.1,157.7c-28.7-13.9-55.1-36-75.5-64.7
							C359.7,830.8,347.7,798.8,343.7,766.8z"/>
					</g>
				</g>
			</g>
		</g>
		<g>
			<g>
				<path d="M316.6,879L164,538.5l-95.3,11.3l111.8-51.5l190.2,424.2l-164.5-41.1L316.6,879z M81.3,369.2l34.2-15.7l49.9,111.4
					L81.3,369.2z"/>
			</g>
		</g>
	</g>
</g>
<g>
	<g>
		<g>
			<g>
				<g>
					<path d="M956.1,465.9c-2.3-8.6-4.9-23.5,5.4-37.1c-2.5,41.3,21.8,67.6,56,58.1c9-2.5,17.2-6.7,24.5-12.7
						c-6.5,9.6-17.2,15.9-30,19.4C986.8,500.7,962.9,490.8,956.1,465.9z M999.1,407.3l59.3-16.5l-21.2,14.7l30.9,114l23.4-6.5
						l-30,17.1l-33.1-122.2l-64.1,17.8C969.9,419.8,979.2,412.8,999.1,407.3z"/>
				</g>
			</g>
			<g>
				<g>
					<path d="M964.3,457l-2.4-5.2c5.3-1.4,10.5-1.8,15.8-1.3L964.3,457z M980.1,449.3c1.2-2.1,2.4-3.9,3.6-5.5
						c1.2-1.6,2.7-3.2,4.6-4.8c1.8-1.6,4.1-3.1,6.8-4.4s5.2-2.2,7.6-2.6c2.4-0.5,4.6-0.7,6.6-0.6s4.2,0.2,6.5,0.6L980.1,449.3z"/>
				</g>
			</g>
			<g>
				<g>
					<path d="M1079.1,663l-18.6-68.7c-63,16.1-118,16-145.7,12.5l291.9-81.2c-20.9,16.6-66.5,44.2-125.6,63l18.4,67.9l168.3,94.9
						c-75.8-0.4-140.4-49.8-180.4-98.6c-7.3,76.9-40,164.1-101,201.6L1079.1,663z"/>
				</g>
			</g>
		</g>
		<g>
			<g>
				<path d="M869.2,583L838,444.6l36.3-8.4c17.7-4.1,30.7-4.7,42.9-0.8l-68.1,15.8l25.5,113l41-28.4L869.2,583z M943.9,466.2
					c6.5,28.7-10.8,49.9-37.5,56.1c-13.7,3.2-26.6,2.7-37.3-2.9c9.6,1.7,19.2,1.4,28.8-0.8c36.3-8.4,46.2-44.4,23.7-81.3
					C937.2,444,942.4,459.4,943.9,466.2z"/>
			</g>
		</g>
		<g>
			<g>
				<path d="M887.5,477.2c0.8-2.1,1.7-3.9,2.6-5.5s2-3.1,3.5-4.7c1.4-1.5,3.3-2.9,5.5-4s4.4-1.9,6.4-2.1c2.1-0.3,4-0.3,5.8-0.1
					c1.8,0.2,3.7,0.6,5.9,1.1L887.5,477.2z M919.2,460.9c2-4.4,4.8-8.2,8.2-11.3l2.8,5.6L919.2,460.9z"/>
			</g>
		</g>
		<g>
			<g>
				<path d="M705,924.3l163.1-138.8l-7.9,34.1V697.5l7.9,34.1L705,592.8h329.9L871.8,731.6l7.9-34.1v122.2l-7.9-34.1l163.1,138.8
					H705V924.3z"/>
			</g>
		</g>
	</g>
</g>
<line fill="none" stroke="#000000" stroke-width="7.0927" stroke-miterlimit="10" x1="0" y1="924.3" x2="1417.3" y2="924.3"/>
</svg>
