<?xml version="1.0" encoding="utf-8"?>
<!-- Generator: Adobe Illustrator 28.0.0, SVG Export Plug-In . SVG Version: 6.00 Build 0)  -->
<svg version="1.1" id="Livello_1" xmlns="http://www.w3.org/2000/svg" xmlns:xlink="http://www.w3.org/1999/xlink" x="0px" y="0px"
	 viewBox="0 0 1417.3 992.1" enable-background="new 0 0 1417.3 992.1" xml:space="preserve">
<g>
	<g>
		<g>
			<g>
				<g>
					<path d="M1100.3,300.7c3-8,9.4-21.1,25.2-25.6c-25.3,30.6-21.1,64.9,11.2,77.1c8.5,3.2,17.3,4.7,26.4,4.2
						c-10.5,3.7-22.5,2.5-34.6-2.1C1104.7,345.2,1091.5,323.9,1100.3,300.7z M1167.2,279.9l55.9,21.2l-25-0.8l-40.2,106.1l22.1,8.4
						l-33.3-3.9l43.1-113.7l-60.5-22.9C1137.1,272.8,1148.3,272.7,1167.2,279.9z"/>
				</g>
			</g>
			<g>
				<g>
					<path d="M1111.4,298.7l1.9-5.1c4.5,2.8,8.3,6.2,11.5,10.2L1111.4,298.7z M1127.3,304.7c2.3-0.5,4.4-0.9,6.3-1.1s4-0.2,6.4,0
						s4.9,0.9,7.6,1.9s5,2.2,6.9,3.6s3.5,2.8,4.8,4.2c1.3,1.4,2.6,3.1,4,5L1127.3,304.7z"/>
				</g>
			</g>
			<g>
				<g>
					<path d="M1082.3,532.4l25.5-67.2l-109.7-41.6l-31.7,44.5l44.5-117.4l-5.8,54.3l237.1,89.9l31.7-44.5l-25.8,68l-121-45.9
						l-25.3,66.8l80.2,172.9c-59.3-43.8-83.7-122.4-87.5-183.1c-49.2,55.4-124.2,104.3-193.3,98.4L1082.3,532.4z"/>
				</g>
			</g>
			<g>
				<g>
					<path d="M806.7,422.1c-31.5,3.9-62.4-0.3-89.3-10.9l173.1-21.5C867.1,406.6,838.6,418.1,806.7,422.1z M907.5,387.6l69.7-8.6
						l2.7,21.6L907.5,387.6z"/>
				</g>
			</g>
		</g>
		<g>
			<g>
				<path d="M369.6,609.8l0.4-136.2l36.2,0.1c17.7,0.1,30.1,2.3,40.8,8.7l-67.9-0.2l-0.3,111.2l45-17.5L369.6,609.8z M465.6,517.1
					c-0.1,28.2-21.1,44.2-47.7,44.2c-13.6,0-25.8-3.3-34.7-10.9c8.7,3.7,17.9,5.5,27.4,5.6c36.2,0.1,53.3-31.3,40.1-70.8
					C464.1,494.9,465.7,510.4,465.6,517.1z"/>
			</g>
		</g>
		<g>
			<g>
				<path d="M429.2,508.8l-44.4-0.1c6.5-3.5,14.1-5.5,22.2-5.5C415.2,503.2,422.8,505.2,429.2,508.8z M451.4,503.3v5.5l-17.8-0.1
					L451.4,503.3z"/>
			</g>
		</g>
		<g>
			<g>
				<path stroke="#0B07B5" stroke-miterlimit="10" d="M137.2,725.5l-9-27.9l154.9-50L137.2,725.5z M848.2,491.1L374.7,643.9L359,724
					l-29.5-91.4l589.9-190.4L816.5,584.8L848.2,491.1z"/>
			</g>
		</g>
		<g>
			<g>
				<path d="M233.7,937l158.5-133.1l-7.7,32.7V719.4l7.7,32.7L233.7,619h320.7L395.9,752.1l7.7-32.7v117.2l-7.7-32.7L554.4,937
					H233.7z"/>
			</g>
		</g>
	</g>
</g>
<line fill="none" stroke="#000000" stroke-width="7.0927" stroke-miterlimit="10" x1="0" y1="935.5" x2="1417.3" y2="935.5"/>
</svg>
