<?xml version="1.0" encoding="utf-8"?>
<!-- Generator: Adobe Illustrator 28.0.0, SVG Export Plug-In . SVG Version: 6.00 Build 0)  -->
<svg version="1.1" id="Livello_1" xmlns="http://www.w3.org/2000/svg" xmlns:xlink="http://www.w3.org/1999/xlink" x="0px" y="0px"
	 viewBox="0 0 1417.3 992.1" enable-background="new 0 0 1417.3 992.1" xml:space="preserve">
<line fill="none" stroke="#000000" stroke-width="7.0927" stroke-miterlimit="10" x1="0" y1="935.4" x2="1417.3" y2="935.4"/>
<g>
	<g>
		<g>
			<path d="M895.7,553.8c0-8.3,1.4-22.5,14.3-32.1c-12.6,36.7,3.1,66.6,36.7,66.7c8.9,0,17.4-1.7,25.5-5.2c-8.3,7-19.7,10-32.4,9.9
				C915.1,593,895.6,578,895.7,553.8z M949.7,511.7l58.5,0.1l-23.1,7.9l-0.3,110.8l23.1,0.1l-31.8,7.9l0.3-118.8l-63.2-0.1
				C919.8,515.6,930,511.7,949.7,511.7z"/>
		</g>
	</g>
	<g>
		<g>
			<path d="M904.8,547.9v-5.4c5.1,1,9.7,2.8,14,5.4H904.8z M921.5,547.9c1.9-1.2,3.7-2.3,5.4-3.2s3.6-1.6,5.9-2.2
				c2.2-0.6,4.8-0.9,7.6-0.9s5.3,0.3,7.5,0.9c2.2,0.6,4.2,1.3,5.8,2.2c1.7,0.9,3.5,1.9,5.4,3.2H921.5z"/>
		</g>
	</g>
	<g>
		<g>
			<path d="M1064,932.9c-61.2-29.1-100.4-107.2-114.8-178.1c-33.1,49.4-92.3,103.8-163.9,111.6l152.8-106.6l11.5-68.8l-124.7-20.8
				l11.7-70.1l4.9,53.1l244.4,40.7l21.8-48.7l-20.2,120.9l-4.9-53.1l-113-18.8L958,763.5L1064,932.9z"/>
		</g>
	</g>
	<g>
		<g>
			<path d="M1123.2,706.2l-12.4-17.3l55.7-40L1123.2,706.2z M1180,639.2l138.5-99.4c-12.2,25.5-31.6,48.9-56.8,67
				C1236.2,625.1,1208.1,635.7,1180,639.2z"/>
		</g>
	</g>
</g>
<g>
	<g>
		<path d="M568.6,500h-66.3v124.7l-33.4-8.3h24.2V500l-24.2-8.3h61.4C550.9,491.6,561.7,495.8,568.6,500z M540.4,577
			c-13.3,0-25.2-3.2-34-10.5c8.5,3.8,17.5,5.6,26.8,5.6c35.3,0,51.8-31.4,38.7-69.9c13.5,10.1,14.9,25,14.9,33.8
			C586.9,561.3,566.4,577,540.4,577z"/>
	</g>
</g>
<g>
	<g>
		<path d="M551.7,526h-43.3c6.3-3.4,13.8-5.4,21.7-5.4C538,520.6,545.4,522.6,551.7,526z M573.4,520.6v5.4H556L573.4,520.6z"/>
	</g>
</g>
<g>
	<g>
		<path d="M317,321l174.8,333.3l75.7-5.9L484.4,692L266.7,276.6l139.8,47.7L317,321z M584.2,820.3l-25.4,13.3l-57.2-109.1
			L584.2,820.3z"/>
	</g>
</g>
<g>
	<g>
		<path d="M345.6,938.2l154.9-130l-7.5,32V725.6l7.5,32l-154.9-130H659l-155,130l7.5-32v114.5l-7.5-32l154.9,130H345.6V938.2z"/>
	</g>
</g>
</svg>
