<?xml version="1.0" encoding="utf-8"?>
<!-- Generator: Adobe Illustrator 28.0.0, SVG Export Plug-In . SVG Version: 6.00 Build 0)  -->
<svg version="1.1" id="Livello_1" xmlns="http://www.w3.org/2000/svg" xmlns:xlink="http://www.w3.org/1999/xlink" x="0px" y="0px"
	 viewBox="0 0 1417.3 992.1" enable-background="new 0 0 1417.3 992.1" xml:space="preserve">
<line fill="none" stroke="#000000" stroke-width="7.0927" stroke-miterlimit="10" x1="0" y1="934.9" x2="1417.3" y2="934.9"/>
<g>
	<g>
		<g>
			<g>
				<g>
					<path d="M833.8,379.4c-4.8-6.8-11.8-19.1-6.8-34.3c10.8,37.1,40.6,52.5,68.1,33.3c7.3-5.1,13.2-11.3,17.8-18.9
						c-2.8,10.5-10.3,19.4-20.7,26.6C872,400.2,847.6,399.1,833.8,379.4z M853.7,314.2l47.7-33.4l-14.3,19.7l63.3,90.4l18.8-13.2
						l-21.4,24.6L880,305.5l-51.5,36.1C831.6,334.5,837.7,325.5,853.7,314.2z"/>
				</g>
			</g>
			<g>
				<g>
					<path d="M838.3,369.4l-3.1-4.4c4.7-2.1,9.5-3.3,14.5-3.6L838.3,369.4z M851.9,359.9c0.8-2.1,1.7-4,2.6-5.6
						c0.9-1.7,2-3.4,3.5-5.1c1.5-1.8,3.4-3.4,5.6-5c2.3-1.6,4.5-2.8,6.7-3.6c2.2-0.8,4.2-1.3,6-1.6c1.9-0.2,3.9-0.4,6.2-0.5
						L851.9,359.9z"/>
				</g>
			</g>
			<g>
				<g>
					<path d="M937.3,522.8l-16.6-67.9L809.9,482l-0.9,53l-29-118.6l25.3,46.7l239.6-58.5l0.9-53.1l16.8,68.7l-122.3,29.9l16.5,67.5
						l159.6,94.5c-71.7-2.4-134.5-52.1-171-98.6c-9,71.5-42.2,152-100.7,185.3L937.3,522.8z"/>
				</g>
			</g>
			<g>
				<g>
					<path d="M1114.3,342.7l-39.5,55.7l-17.3-12.3L1114.3,342.7z M1155.6,247.6c17.8-25.2,41.1-44.6,66.4-57l-98.1,138.5
						C1127.1,301.2,1137.6,273.1,1155.6,247.6z"/>
				</g>
			</g>
		</g>
		<g>
			<path d="M651.1,434.9l-66,0.4l0.7,124.1l-33.3-8.1l24.1-0.1L576,435.3l-24.2-8.2l61.1-0.3C633.4,426.7,644.1,430.8,651.1,434.9z
				 M623.4,511.8c-13.2,0.1-25.1-3-33.9-10.3c8.5,3.7,17.4,5.4,26.7,5.4c35.2-0.2,51.4-31.5,38.2-69.8c13.5,10,15,24.8,15,33.5
				C669.6,495.9,649.3,511.7,623.4,511.8z"/>
		</g>
		<g>
			<path d="M634.6,461.2l-43.1,0.2c6.3-3.5,13.7-5.5,21.5-5.5C621,455.9,628.4,457.8,634.6,461.2z M656.2,455.7v5.4l-17.4,0.1
				L656.2,455.7z"/>
		</g>
		<g>
			<path d="M265.9,696.6l200.3,20.1l-28,16.8l81.6-79.6l-17.5,27.6l-14.9-200.8l217.7,223.4L504.8,684l28-16.8l-81.6,79.6l17.5-27.6
				l15,200.8L265.9,696.6z"/>
		</g>
		<g>
			<path d="M389.6,609.3l-6.9-31.7l104.5-22.7L389.6,609.3z M869.2,499.9l-319.5,69.3l-8.6,82.9l-22.5-103.9l398.1-86.3L850,594.1
				L869.2,499.9z"/>
		</g>
	</g>
</g>
</svg>
