<?xml version="1.0" encoding="utf-8"?>
<!-- Generator: Adobe Illustrator 28.0.0, SVG Export Plug-In . SVG Version: 6.00 Build 0)  -->
<svg version="1.1" xmlns="http://www.w3.org/2000/svg" xmlns:xlink="http://www.w3.org/1999/xlink" x="0px" y="0px"
	 viewBox="0 0 1474 993" enable-background="new 0 0 1474 993" xml:space="preserve">
<g id="Livello_2">
	<rect fill="#3A3C57" width="1474" height="993.8"/>
	<rect x="20.9" y="181.3" fill="#FFFFFF" stroke="#3A3C57" stroke-miterlimit="10" width="1266.3" height="637.2"/>
	<rect x="25.8" y="181.3" fill="#FFFFFF" stroke="#3A3C57" stroke-miterlimit="10" width="1272.8" height="637.2"/>
	<rect x="30.8" y="181.3" fill="#FFFFFF" stroke="#3A3C57" stroke-miterlimit="10" width="1272.8" height="637.2"/>
	<rect x="35.4" y="181.3" fill="#FFFFFF" stroke="#3A3C57" stroke-miterlimit="10" width="1272.8" height="637.2"/>
	<rect x="40.3" y="181.3" fill="#FFFFFF" stroke="#3A3C57" stroke-miterlimit="10" width="1272.8" height="637.2"/>
	<rect x="47.1" y="181.3" fill="#FFFFFF" stroke="#3A3C57" stroke-miterlimit="10" width="1272.8" height="637.2"/>
	<rect x="51.7" y="181.3" fill="#FFFFFF" stroke="#3A3C57" stroke-miterlimit="10" width="1272.8" height="637.2"/>
	<rect x="55.6" y="181.3" fill="#FFFFFF" stroke="#3A3C57" stroke-miterlimit="10" width="1272.8" height="637.2"/>
	<rect x="62.4" y="181.3" fill="#FFFFFF" stroke="#3A3C57" stroke-miterlimit="10" width="1272.8" height="637.2"/>
	<rect x="67.6" y="181.3" fill="#FFFFFF" stroke="#3A3C57" stroke-miterlimit="10" width="1272.8" height="637.2"/>
	<rect x="72.9" y="181.3" fill="#FFFFFF" stroke="#3A3C57" stroke-miterlimit="10" width="1272.8" height="637.2"/>
	<rect x="82.1" y="181.3" fill="#FFFFFF" stroke="#3A3C57" stroke-miterlimit="10" width="1272.8" height="637.2"/>
	<rect x="86.6" y="181.3" fill="#FFFFFF" stroke="#3A3C57" stroke-miterlimit="10" width="1272.8" height="637.2"/>
	<rect x="91.2" y="181.3" fill="#FFFFFF" stroke="#3A3C57" stroke-miterlimit="10" width="1272.8" height="637.2"/>
	<rect x="95.7" y="181.3" fill="#FFFFFF" stroke="#3A3C57" stroke-miterlimit="10" width="1272.8" height="637.2"/>
	<rect x="117" y="181.3" fill="#FFFFFF" stroke="#3A3C57" stroke-miterlimit="10" width="1272.8" height="637.2"/>
	<rect x="123.1" y="181.3" fill="#FFFFFF" stroke="#3A3C57" stroke-miterlimit="10" width="1272.8" height="637.2"/>
	<rect x="129.2" y="181.3" fill="#FFFFFF" stroke="#3A3C57" stroke-miterlimit="10" width="1272.8" height="637.2"/>
	<rect x="141.3" y="181.3" fill="#FFFFFF" stroke="#3A3C57" stroke-miterlimit="10" width="1272.8" height="637.2"/>
	<rect x="148.1" y="181.3" fill="#FFFFFF" stroke="#3A3C57" stroke-miterlimit="10" width="1272.8" height="637.2"/>
	<rect x="157.3" y="181.3" fill="#FFFFFF" stroke="#3A3C57" stroke-miterlimit="10" width="1272.8" height="637.2"/>
	<rect x="150.3" y="181.3" fill="#FFFFFF" stroke="#3A3C57" stroke-miterlimit="10" width="1272.8" height="637.2"/>
	<rect x="172" y="181.3" fill="#FFFFFF" stroke="#3A3C57" stroke-miterlimit="10" width="1302" height="637.9"/>
</g>
<g id="Livello_1">
	<g>
		<path fill="#303152" d="M248.4,234.4l2,4c-6.7,13.2-17.5,34.6-24.4,40.2L248.4,234.4z M257.6,260.6c-3.7-7.2-6.4-15.1-7.2-22.3
			l20.1,40.2C265.7,274.1,261.2,267.7,257.6,260.6c-2.9,2.1-6.6,2.9-9.4,2.9c-2.8,0-6.7-0.8-9.5-2.9H257.6z"/>
		<path fill="#303152" d="M297.4,256.9h-12.9v18.9l8,2.1h-19.1l8-2.1v-38.6l-8-2.1h23.2c4,0,9,0.4,12.5,2.8h-24.6v16.9h13.6
			c10.9,0,15.8-7.2,11.8-16.3c3.4,2.6,4.5,5.9,4.5,7.8c0,6.5-5.2,10.6-15.3,10.6l20.4,21.7C308.1,275.2,300.6,263.8,297.4,256.9z"/>
		<path fill="#303152" d="M320.8,256.4c0-7.8,4-13.7,8.5-17.2c-3.2,5.3-4.6,10.7-4.6,15.5c0,12,8.5,21.3,20.1,21.3
			c4.7,0,9.9-1.5,15.2-5c-4.1,4.5-10,7.4-16.5,7.4C330.9,278.5,320.8,268.7,320.8,256.4z M344.7,234.4c5.1,0,9,1,13.2,3.4h-26.7
			C335.5,235.4,339.5,234.4,344.7,234.4z"/>
		<path fill="#303152" d="M369.7,275.8v-38.6l-8-2.1h11.1v40.7l8,2.1h-19.1L369.7,275.8z M404.4,254.8c-2.7,1.8-9.1,3.4-15.8,3.4
			s-13.2-1.6-15.9-3.4H404.4z M404.4,275.8v-40.7h11.1l-8,2.1v38.6l8,2.1h-19.1L404.4,275.8z"/>
		<path fill="#303152" d="M417.5,277.9l8-2.8v-37.9l-8-2.1h37.8c-4.4,2.3-8.8,2.8-14.4,2.8h-12.3v16.9h21.7
			c-4.3,2.3-8.7,2.8-14.4,2.8h-7.3c-0.1,8.6-1.4,16.7-3,20.3H417.5z M440.5,274.5c5.7,0,9.9,1,14.7,3.4h-29.8
			C430.3,275.5,434.7,274.5,440.5,274.5z"/>
		<path fill="#303152" d="M477,275.8v-37.3c-8.5-0.2-15.3-1.7-18.8-3.4h40.7c-3.5,1.7-10.3,3.2-18.8,3.4v37.3l8,2.1H469L477,275.8z"
			/>
		<path fill="#303152" d="M521.8,275.8v-23.6l-20.3-17.1c8.3,1.2,17.8,9.8,21.8,17.9c4-8.1,13.5-16.7,21.8-17.9l-20.3,17.1v23.6
			l8,2.1h-19.1L521.8,275.8z"/>
		<path fill="#303152" d="M556.1,275.8v-38.6l-8-2.1h24.2c4.1,0,9.3,0.4,12.8,2.8h-25.9v37.9l8,2.1h-19.1L556.1,275.8z M573.7,260.1
			c10.9,0,16.1-9.9,12-21.7c4,2.9,4.5,8,4.5,10c0,8.5-6.3,13.3-14.3,13.3c-4.1,0-7.8-1-10.5-3.2
			C568.1,259.6,570.8,260.1,573.7,260.1z"/>
		<path fill="#303152" d="M592.5,277.9l8-2.8v-37.9l-8-2.1h37.8c-4.4,2.3-8.8,2.8-14.4,2.8h-12.3v16.9h21.7
			c-4.3,2.3-8.7,2.8-14.4,2.8h-7.3c-0.1,8.6-1.4,16.7-3,20.3H592.5z M615.5,274.5c5.7,0,9.9,1,14.7,3.4h-29.8
			C605.3,275.5,609.8,274.5,615.5,274.5z"/>
		<path fill="#303152" d="M635.9,241l3-2.7v36.3l-3-2.7V241z M650.2,234.4c4.2,0,7.4,1,10.9,3.4h-21.7
			C642.9,235.4,646,234.4,650.2,234.4z M661.6,238.3l3,2.7V272l-3,2.7v-33.8L641,275.1h20.1c-3.5,2.4-6.7,3.4-10.9,3.4
			s-7.4-1-10.9-3.4L661.6,238.3z"/>
		<path fill="#303152" d="M671.9,274.7c3.8,1.6,7.5,2.4,10.8,2.4c8.8,0,15-5.2,15-12.4l-24.8-14.4v-11.7l3-3.4v13l25.7,14.9
			c0,9.3-6.7,16.1-16.9,16.1C679.4,279,674.9,277.2,671.9,274.7z M700.4,235.1c-4,2.4-7.6,3.4-12.2,3.4c-4.7,0-8.4-1-12.3-3.4H700.4
			z"/>
		<path fill="#303152" d="M730.2,275.8v-18.2c-2.4,1.3-5.7,2.2-9.9,2.2c-8.6,0-15.4-5.3-15.4-14.7c0-2.2,0.5-7.4,4.9-10.6
			c-5.5,16.7,5.4,27.5,20.4,22.3v-19.6l3-2.7v41.3l8,2.1h-19.1L730.2,275.8z"/>
		<path fill="#303152" d="M744.2,271.8l23.1-26.5c1.1-1.3,1.9-2.8,1.9-4.3c0-0.9-0.3-1.8-1-2.8c1.5,1.3,3.4,3.7,4.1,6l-23,26.5
			c-1.1,1.3-1.9,2.9-1.9,4.5c0,0.9,0.3,1.8,0.9,2.8C746.8,276.7,744.9,274.1,744.2,271.8z M757,234.4c4.2,0,7.4,1,10.9,3.4h-21.7
			C749.6,235.4,752.8,234.4,757,234.4z M761.2,274.5c4.8,0,8.4,1,12.4,3.4h-24.8C752.7,275.5,756.4,274.5,761.2,274.5z"/>
		<path fill="#303152" d="M789.2,235.1l3.2,2.8h-12.8l-3.1-2.8H789.2z M792.8,275.8v-37.5l3,2.7v34.8l8,2.1h-19.1L792.8,275.8z"/>
		<path fill="#303152" d="M815.9,238.8v36.9l8,2.1h-19.1l8-2.1v-41.3c10.9,6.3,25,27.1,26,37.7L815.9,238.8z M864.9,234.4v41.3
			l8,2.1h-19.1l8-2.1v-36.9l-23,33.3C839.9,261.5,853.9,240.8,864.9,234.4z"/>
		<path fill="#303152" d="M896.9,234.4l2,4c-6.7,13.2-17.5,34.6-24.4,40.2L896.9,234.4z M906.1,260.6c-3.7-7.2-6.4-15.1-7.2-22.3
			l20.1,40.2C914.2,274.1,909.7,267.7,906.1,260.6c-2.9,2.1-6.6,2.9-9.4,2.9c-2.8,0-6.7-0.8-9.5-2.9H906.1z"/>
		<path fill="#303152" d="M947.3,235.1c5.2,0,8.5,0.5,12.8,2.8h-28.4v20c0,8.8-1.4,17-3,20.7v-41.3l-8-2.1H947.3z M932.1,272.4
			c18.2,10.4,34-0.7,34-16.5c0-7.1-0.9-11.7-4.1-16.9c4.4,3.5,8.2,9.5,8.2,17.3c0,12.2-9.8,22.2-22.1,22.2
			C941.9,278.5,936.1,276.6,932.1,272.4z"/>
		<path fill="#303152" d="M983.6,275.8v-38.6l-8-2.1h19.1l-8,2.1v38.6l8,2.1h-19.1L983.6,275.8z"/>
		<path fill="#303152" d="M1029.9,270.3c0-2.4-1-4.7-4-6.5l-25.9-15c-0.1-0.6-0.1-1.1-0.1-1.6c0-3.4,1.4-6.4,3.6-8.4
			c-0.5,1.3-0.8,2.6-0.8,4c0,2.2,0.9,4.1,3.1,5.5l26.7,15.5c0.3,1.1,0.4,2,0.4,3c0,3.2-1.4,5.9-3.8,7.8
			C1029.5,273.1,1029.9,271.8,1029.9,270.3z M1028.2,275.1c-3.8,2.4-8.7,3.4-14,3.4c-5.3,0-10.1-1-13.9-3.4H1028.2z M1017.7,234.4
			c5,0,9.4,1,13.2,3.4h-26.2C1008.4,235.4,1012.7,234.4,1017.7,234.4z"/>
		<path fill="#303152" d="M1038.1,256.4c0-7.8,3.9-13.6,8.5-17.2c-3,4.8-4.5,10.3-4.5,15.7c0,11.5,6.7,21.9,18.6,21.9
			c12,0,18.6-10.3,18.6-21.8c0-5.3-1.4-10.9-4.5-15.8c4.6,3.6,8.6,9.4,8.6,17.2c0,12.2-10,22.1-22.6,22.1S1038.1,268.7,1038.1,256.4
			z M1060.7,234.4c4.7,0,8.2,1,12.1,3.4h-24.4C1052.4,235.4,1056,234.4,1060.7,234.4z"/>
		<path fill="#303152" d="M1133.9,272.7v-35.5h-11l14-2.8v44.1l-39.6-41v38.2l8,2.1h-19.1l8-2.1v-41.3
			C1106.3,240.8,1125.4,258.5,1133.9,272.7z"/>
		<path fill="#303152" d="M1150.6,275.8v-38.6l-8-2.1h11.1v40.7l8,2.1h-19.1L1150.6,275.8z M1185.3,254.8c-2.7,1.8-9.1,3.4-15.8,3.4
			s-13.2-1.6-15.9-3.4H1185.3z M1185.3,275.8v-40.7h11.1l-8,2.1v38.6l8,2.1h-19.1L1185.3,275.8z"/>
		<path fill="#303152" d="M1199.4,256.4c0-7.8,3.9-13.6,8.5-17.2c-3,4.8-4.5,10.3-4.5,15.7c0,11.5,6.7,21.9,18.6,21.9
			c12,0,18.6-10.3,18.6-21.8c0-5.3-1.4-10.9-4.5-15.8c4.6,3.6,8.6,9.4,8.6,17.2c0,12.2-10,22.1-22.6,22.1S1199.4,268.7,1199.4,256.4
			z M1222,234.4c4.7,0,8.2,1,12.1,3.4h-24.4C1213.6,235.4,1217.3,234.4,1222,234.4z"/>
		<path fill="#303152" d="M1271.6,256.9h-12.9v18.9l8,2.1h-19.1l8-2.1v-38.6l-8-2.1h23.2c4,0,9,0.4,12.5,2.8h-24.6v16.9h13.6
			c10.9,0,15.8-7.2,11.8-16.3c3.4,2.6,4.5,5.9,4.5,7.8c0,6.5-5.2,10.6-15.3,10.6l20.4,21.7C1282.2,275.2,1274.7,263.8,1271.6,256.9z
			"/>
		<path fill="#303152" d="M1295,256.4c0-7.8,3.9-13.7,8.4-17.2c-3.2,5.3-4.5,10.7-4.5,15.5c0,12,8.5,21.3,20.1,21.3
			c5.5,0,9.9-1.5,12.8-2.8c-1.9,1.9-7.6,5.3-14,5.3C1305,278.5,1295,268.7,1295,256.4z M1318.7,234.4c5.2,0,9.2,1,13.4,3.4h-26.8
			C1309.6,235.4,1313.7,234.4,1318.7,234.4z M1336.5,254.8v14.4l-2.9,2.5v-15.1c-2.3,1-5.5,1.6-8.8,1.6c-5,0-9.7-1.5-11.7-3.4
			H1336.5z"/>
		<path fill="#303152" d="M1339.5,277.9l8-2.8v-37.9l-8-2.1h37.8c-4.4,2.3-8.8,2.8-14.4,2.8h-12.3v16.9h21.7
			c-4.3,2.3-8.7,2.8-14.4,2.8h-7.3c-0.1,8.6-1.4,16.7-3,20.3H1339.5z M1362.5,274.5c5.7,0,9.9,1,14.7,3.4h-29.8
			C1352.3,275.5,1356.7,274.5,1362.5,274.5z"/>
		<path fill="#303152" d="M254.2,343.6v-54.5c-12.4-0.3-22.4-2.5-27.5-5h59.5c-5.1,2.5-15.1,4.7-27.5,5v54.5l11.7,3.1h-27.9
			L254.2,343.6z"/>
		<path fill="#303152" d="M325.5,316h-18.9v27.6l11.7,3.1h-27.9l11.7-3.1v-56.4l-11.7-3.1h33.9c5.8,0,13.2,0.6,18.3,4h-36v24.7h19.8
			c15.9,0,23.1-10.5,17.2-23.9c5,3.8,6.5,8.6,6.5,11.5c0,9.4-7.6,15.5-22.3,15.5l29.9,31.7C341.1,342.7,330.1,326.1,325.5,316z"/>
		<path fill="#303152" d="M395.3,283.1l2.9,5.8c-9.8,19.4-25.6,50.7-35.6,58.7L395.3,283.1z M408.8,321.4
			c-5.4-10.6-9.3-22.1-10.6-32.5l29.5,58.7C420.7,341.1,414,331.7,408.8,321.4c-4.2,3.1-9.6,4.2-13.8,4.2c-4.1,0-9.7-1.2-14-4.2
			H408.8z"/>
		<path fill="#303152" d="M450.2,343.1c6.8,0,13-1.2,18.9-4.6c-4.4,5.7-10.9,9.1-18.9,9.1c-8,0-15.2-3.5-19.6-9.1
			C436.4,342,443.4,343.1,450.2,343.1z M469.6,287.2l-12.6-3.1h17v28.1c0,16-2.8,22.9-4.4,25.6V287.2z"/>
		<path fill="#303152" d="M513.5,283.1l2.9,5.8c-9.8,19.4-25.6,50.7-35.6,58.7L513.5,283.1z M527,321.4
			c-5.4-10.6-9.3-22.1-10.6-32.5l29.5,58.7C538.8,341.1,532.2,331.7,527,321.4c-4.2,3.1-9.6,4.2-13.8,4.2c-4.1,0-9.7-1.2-14-4.2H527
			z"/>
		<path fill="#303152" d="M617.9,339.1v-51.9h-16.1l20.5-4v64.5l-57.9-59.9v55.9l11.7,3.1h-27.9l11.7-3.1v-60.5
			C577.5,292.5,605.3,318.4,617.9,339.1z"/>
		<path fill="#303152" d="M661.6,343.6v-34.5l-29.7-25c12.1,1.7,26.1,14.3,31.9,26.2c5.8-11.8,19.7-24.5,31.9-26.2l-29.7,25v34.5
			l11.7,3.1h-27.9L661.6,343.6z"/>
		<path fill="#303152" d="M736.5,343.6v-26.7c-3.6,1.9-8.3,3.2-14.4,3.2c-12.6,0-22.5-7.8-22.5-21.5c0-3.2,0.8-10.8,7.1-15.5
			c-8,24.4,7.9,40.3,29.9,32.5v-28.6l4.4-3.9v60.5l11.7,3.1h-27.9L736.5,343.6z"/>
		<path fill="#303152" d="M787.6,284.1c-5.1,3.6-9.7,5-15.8,5c-6,0-10.7-1.4-15.8-5H787.6z M788.9,284.1c3.2,1.6,7.6,5.3,9.8,9.5
			l-27,53.1h-5.1l19.1-37.3c-3.9,3-8.3,4.4-13.6,4.4c-5.3,0-9.8-1.4-13.8-4.5h27.4l6-11.7C794.4,292.6,792.8,287.6,788.9,284.1z"/>
		<path fill="#303152" d="M807.6,332.3l18.5-17.5l-17.6-18.2c1.2-3.1,3.9-6.5,6.2-8.2c-1,1.3-1.4,2.5-1.4,3.8c0,2.3,1.4,4.6,3.1,6.3
			l12.9,13.3l12.8-13.3c1.6-1.6,3.1-3.9,3.1-6.3c0-1.3-0.5-2.5-1.4-3.8c2.2,1.7,5,5.1,6.2,8.2l-17.6,18.2l18.6,17.6
			c-1.3,3.8-4.2,7.7-6.7,9.6c1.3-1.6,1.6-3.4,1.6-5.1c0-2-0.9-4-2.7-5.9l-13.8-13.4l-13.9,13.4c-1.8,1.8-2.7,3.9-2.7,5.9
			c0,1.7,0.4,3.5,1.6,5.1C812.2,340.2,809.2,336.9,807.6,332.3z M843.3,342.6c-4.5,3.6-9.3,5-14.2,5c-4.4,0-9.7-1.4-14.3-5H843.3z
			 M829,283.1c5.5,0,9.6,1.4,14.2,5H815C819.4,284.6,823.6,283.1,829,283.1z"/>
		<path fill="#303152" d="M896.4,316h-24.2v1.4c0,12.8-2,24.8-4.4,30.2v-60.5l-11.7-3.1h28c5.8,0,13.1,0.6,18.2,4h-30v24.7h25.6
			c14.6,0,22.3,7.4,22.3,17.3c0,2.9-1.5,7.9-6.5,11.7C919.6,328.2,912.2,316,896.4,316z M913.1,342.6c-5,3.7-11.7,5-19.4,5
			c-7.4,0-13.6-1.3-19.5-5H913.1z M903.2,288.9c7.3,7.4,5,20.4-6.1,23.4C903,306.9,904.2,297.3,903.2,288.9z"/>
		<path fill="#303152" d="M923.6,346.7l11.7-4v-55.5l-11.7-3.1h55.3c-6.5,3.4-12.8,4-21.1,4h-18v24.7h31.8c-6.4,3.4-12.7,4-21.1,4
			h-10.7c-0.1,12.6-2,24.5-4.4,29.8H923.6z M957.3,341.7c8.4,0,14.5,1.4,21.6,5h-43.5C942.4,343.1,948.8,341.7,957.3,341.7z"/>
		<path fill="#303152" d="M1010.7,343.6v-54.5c-12.4-0.3-22.4-2.5-27.5-5h59.5c-5.1,2.5-15.1,4.7-27.5,5v54.5l11.7,3.1H999
			L1010.7,343.6z"/>
		<path fill="#303152" d="M1074.1,343.6v-54.5c-12.4-0.3-22.4-2.5-27.5-5h59.5c-5.1,2.5-15.1,4.7-27.5,5v54.5l11.7,3.1h-27.9
			L1074.1,343.6z"/>
		<path fill="#303152" d="M1110.4,346.7l11.7-4v-55.5l-11.7-3.1h55.3c-6.5,3.4-12.8,4-21.1,4h-18v24.7h31.8c-6.4,3.4-12.7,4-21.1,4
			h-10.7c-0.1,12.6-2,24.5-4.4,29.8H1110.4z M1144.1,341.7c8.4,0,14.5,1.4,21.6,5h-43.5C1129.2,343.1,1135.6,341.7,1144.1,341.7z"/>
		<path fill="#303152" d="M1206.5,316h-18.9v27.6l11.7,3.1h-27.9l11.7-3.1v-56.4l-11.7-3.1h33.9c5.8,0,13.2,0.6,18.3,4h-36v24.7
			h19.8c15.9,0,23.1-10.5,17.2-23.9c5,3.8,6.5,8.6,6.5,11.5c0,9.4-7.6,15.5-22.3,15.5l29.9,31.7
			C1222.1,342.7,1211.1,326.1,1206.5,316z"/>
		<path fill="#303152" d="M1258.8,284.1l4.6,4h-18.7l-4.5-4H1258.8z M1264,343.6v-54.9l4.4,3.9v50.9l11.7,3.1h-27.9L1264,343.6z"/>
		<path fill="#303152" d="M1315,342.6c-5.1,3.6-9.8,5-16,5c-6.1,0-10.9-1.4-16-5H1315z M1299.1,283.1c6.2,0,10.9,1.4,16,5h-32
			C1288.3,284.6,1293.1,283.1,1299.1,283.1z M1317.5,336.9c0-2-0.9-4-2.7-5.9l-16.8-16.3l15.8-16.4c1.6-1.6,3.1-3.9,3.1-6.3
			c0-1.3-0.5-2.5-1.4-3.8c2.2,1.7,5,5.1,6.2,8.2l-17.4,18.1l18.5,17.8c-1.2,3.2-4.9,7.8-7.1,9.5
			C1316.9,340.4,1317.5,338.7,1317.5,336.9z"/>
		<path fill="#303152" d="M1359.5,342.6c-5.1,3.6-9.8,5-16,5c-6.1,0-10.9-1.4-16-5H1359.5z M1343.6,283.1c6.2,0,10.9,1.4,16,5h-32
			C1332.8,284.6,1337.6,283.1,1343.6,283.1z M1362,336.9c0-2-0.9-4-2.7-5.9l-16.8-16.3l15.8-16.4c1.6-1.6,3.1-3.9,3.1-6.3
			c0-1.3-0.5-2.5-1.4-3.8c2.2,1.7,5,5.1,6.2,8.2l-17.4,18.1l18.5,17.8c-1.2,3.2-4.9,7.8-7.1,9.5C1361.4,340.4,1362,338.7,1362,336.9
			z"/>
		<path fill="#303152" d="M278.1,476c-32.2-2.3-57-28.4-57-60.2c0-21.2,10.6-37.2,23.2-46.9c-26.1,41.7-8.8,102.6,38.6,102.6
			c48.2,0,64.4-61.1,38.5-102.6c12.6,9.7,23.4,25.7,23.4,46.9c0,28.9-20.3,52.8-48.2,59l48.5,8.8h-67.1V476z M283.1,355.8
			c12.8,0,22.3,2.7,33.1,9.3h-66.5C260.5,358.5,270.2,355.8,283.1,355.8z"/>
		<path fill="#303152" d="M359.5,355.8l8.3,7.4v83.8c-5.8-12.8-8.3-28.4-8.3-49.8V355.8z M369.2,448.9c14.9,12,31.6,18,47.5,18
			s32.4-5.9,47.5-18c-8.8,16.5-26.1,27.3-47.3,27.3S378,465.4,369.2,448.9z M473.7,357.6v39.5c0,21.4-2.5,37-8.3,49.8v-83.4l-30-5.9
			H473.7z"/>
		<path fill="#303152" d="M490.2,447.6l34.5-32.7l-32.9-34c2.2-5.8,7.4-12,11.5-15.3c-1.8,2.3-2.7,4.7-2.7,7c0,4.3,2.7,8.6,5.8,11.7
			l24.1,24.8l23.9-24.8c3.1-3.1,5.8-7.4,5.8-11.7c0-2.3-0.9-4.7-2.7-7c4.1,3.2,9.3,9.5,11.5,15.3l-32.9,34l34.7,32.9
			c-2.3,7-7.9,14.4-12.6,18c2.3-3.1,3.1-6.3,3.1-9.5c0-3.8-1.6-7.5-5-11l-25.7-25l-25.9,25c-3.4,3.4-5,7.2-5,11
			c0,3.2,0.7,6.5,3.1,9.5C498.8,462.4,493.3,456.3,490.2,447.6z M556.9,466.9c-8.4,6.7-17.4,9.3-26.4,9.3c-8.3,0-18.2-2.7-26.6-9.3
			H556.9z M530.3,355.8c10.2,0,18,2.7,26.4,9.3H504C512.3,358.5,520.2,355.8,530.3,355.8z"/>
		<path fill="#303152" d="M625.9,468.7V366.9c-23.2-0.5-41.9-4.7-51.4-9.3h111.1c-9.5,4.7-28.2,8.8-51.4,9.3v101.7l21.9,5.8H604
			L625.9,468.7z"/>
		<path fill="#303152" d="M759.1,417.1h-35.2v51.6l21.9,5.8h-52.1l21.9-5.8V363.3l-21.9-5.8H757c10.8,0,24.6,1.1,34.2,7.6h-67.2
			v46.2h37c29.7,0,43.1-19.6,32.2-44.6c9.3,7,12.2,16,12.2,21.4c0,17.6-14.2,28.9-41.7,28.9l55.7,59.1
			C788.2,467,767.8,435.9,759.1,417.1z"/>
		<path fill="#303152" d="M822.9,415.8c0-21.2,10.6-37.2,23.2-46.9c-8.3,13.1-12.2,28.2-12.2,42.8c0,31.3,18.3,59.9,50.9,59.9
			c32.7,0,50.7-28.2,50.7-59.5c0-14.6-4-29.8-12.2-43.1c12.6,9.7,23.4,25.7,23.4,46.9c0,33.4-27.3,60.4-61.8,60.4
			S822.9,449.2,822.9,415.8z M884.8,355.8c12.9,0,22.5,2.7,33.1,9.3h-66.5C861.9,358.5,871.8,355.8,884.8,355.8z"/>
		<path fill="#303152" d="M987.4,415.1c0,26.8-6.3,48.9-10.8,59.3h-21.9l21.9-7.5V355.8C981.1,366,987.4,388.3,987.4,415.1z
			 M1017.6,465.1c15.6,0,27.1,2.7,40.3,9.3h-81.3C989.8,467.8,1001.8,465.1,1017.6,465.1z"/>
		<path fill="#303152" d="M1051.6,415.8c0-21.2,10.6-37.2,23.2-46.9c-8.3,13.1-12.2,28.2-12.2,42.8c0,31.3,18.3,59.9,50.9,59.9
			c32.7,0,50.7-28.2,50.7-59.5c0-14.6-4-29.8-12.2-43.1c12.6,9.7,23.4,25.7,23.4,46.9c0,33.4-27.3,60.4-61.8,60.4
			S1051.6,449.2,1051.6,415.8z M1113.4,355.8c12.9,0,22.5,2.7,33.1,9.3H1080C1090.6,358.5,1100.5,355.8,1113.4,355.8z"/>
		<path fill="#303152" d="M1205.3,468.7V363.3l-21.9-5.8h103.2c-12,6.3-23.9,7.6-39.5,7.6h-33.4v46.2h66.7
			c-12,6.3-23.9,7.5-39.5,7.5h-27.1v49.8l21.9,5.8h-52.1L1205.3,468.7z"/>
		<path fill="#303152" d="M1310.3,468.7V363.3l-21.9-5.8h103.2c-12,6.3-23.9,7.6-39.5,7.6h-33.4v46.2h66.7
			c-12,6.3-23.9,7.5-39.5,7.5h-27.1v49.8l21.9,5.8h-52.1L1310.3,468.7z"/>
		<path fill="#303152" d="M230.5,489.5l6.7,6v67.7c-4.7-10.3-6.7-23-6.7-40.3V489.5z M238.3,564.8c12.1,9.7,25.6,14.5,38.4,14.5
			c12.8,0,26.2-4.8,38.4-14.5c-7.1,13.4-21.1,22.1-38.2,22.1S245.5,578.2,238.3,564.8z M322.8,491v32c0,17.3-2,29.9-6.7,40.3v-67.4
			l-24.3-4.8H322.8z"/>
		<path fill="#303152" d="M382.2,539.1h-28.5v41.7l17.7,4.7h-42.1l17.7-4.7v-85.2l-17.7-4.7h51.2c8.7,0,19.9,0.9,27.6,6.1h-54.4
			v37.3h29.9c24,0,34.9-15.8,26-36c7.6,5.7,9.9,12.9,9.9,17.3c0,14.2-11.5,23.4-33.7,23.4l45.1,47.8
			C405.8,579.5,389.2,554.3,382.2,539.1z"/>
		<path fill="#303152" d="M426.6,489.5l36.8,6.1h-33.6l44.2,83c4.5-8.3,14.4-30.2,22.7-49.8c-6-14.4-10.3-26.9-12.1-33.1l14.8,26.4
			c4.9-11.9,9-22.1,10.3-26.4h-25.1l36.8-6.1c-3.2,7.3-9.7,22.7-17.9,39.8l27.5,49.3c8-14.5,31.7-71.1,35.5-83h-25.3l36.8-6.1
			c-7,16-29.1,70.3-50.4,97.4c-10.2-13.5-19.8-32.7-27.5-50.3c-9,18.2-19.5,37.3-29.6,50.3C454.2,560.6,429,504.9,426.6,489.5z"/>
		<path fill="#303152" d="M603.4,552.7l8.6-31.1c-19.9-0.9-26.3-3.1-32.7-5.7h27.9l13.8-32.1l-7.6,32.1h33.1l13.8-32.1l-7.6,32.1
			h27.6c-5.4,2.2-10.8,4.1-24.3,5.1l-8.7,31.7h33c-5.8,2.3-11.6,4.2-27.5,5.1l-14.8,34.6l8-34.3c-4.8,0.1-10.2,0.3-16.4,0.3
			s-11.5-0.1-16.1-0.3l-15,34.3l8.3-34.6c-16-0.9-21.8-2.8-27.6-5.1H603.4z M616.6,521.8l-8.4,31h34.4l8.7-31.2
			c-5.8,0.3-12.8,0.4-21.7,0.4C624.8,521.9,620.6,521.9,616.6,521.8z"/>
		<path fill="#303152" d="M700.4,582.2v-58.5l-12.2-3.2H725c6.2,0,14.1,0.6,19.4,4.2H705v57.5l12.2,3.2h-29L700.4,582.2z
			 M727.1,558.5c16.6,0,24.4-15,18.3-33c6.1,4.4,6.8,12.1,6.8,15.2c0,12.9-9.5,20.2-21.7,20.2c-6.2,0-11.8-1.5-15.9-4.9
			C718.6,557.7,722.8,558.5,727.1,558.5z"/>
		<path fill="#303152" d="M771.3,582.2v-58.5l-12.2-3.2h29l-12.2,3.2v58.5l12.2,3.2h-29L771.3,582.2z M764.7,503.6h6.4v6.4h-6.4
			V503.6z M776.1,503.6h6.4v6.4h-6.4V503.6z"/>
		<path fill="#303152" d="M825.9,555.2h-16.6v27.1l12.2,3.2h-29l12.2-3.2v-58.5l-12.2-3.2h16.8v29.9h16.5l30.8-31.5
			c-4.6,16.4-19.6,28.1-32.4,33.9c16,6.1,32.7,18.3,37.1,33.7L825.9,555.2z"/>
		<path fill="#303152" d="M867.8,543.5h6.8v6.7h-6.8V543.5z M867.8,578.8h6.8v6.7h-6.8V578.8z"/>
		<path fill="#303152" d="M883.5,573.2l44.5-38.9c4.3-3.8,5.4-8.8,3-13.7c2.5,2.7,5.4,8,5.8,12.9l-44.6,39c-4.9,4.3-6.1,8.4-3.3,13
			C886.4,582.8,884.1,578.3,883.5,573.2z M930.6,520.5c-7.1,3.7-13.6,5.2-22.1,5.2c-8.5,0-15.1-1.5-22.2-5.2H930.6z M914.5,580.3
			c9.6,0,16.9,1.5,24.9,5.2h-49.9C897.4,581.8,904.9,580.3,914.5,580.3z"/>
		<path fill="#303152" d="M981.7,582.2v-27.7c-3.7,2-8.6,3.3-15,3.3c-13.1,0-23.4-8.1-23.4-22.3c0-3.3,0.8-11.2,7.4-16.1
			c-8.3,25.3,8.2,41.7,31,33.8v-29.7l4.6-4.1v62.7l12.2,3.2h-29L981.7,582.2z"/>
		<path fill="#303152" d="M1034.7,520.5c-5.3,3.7-10.1,5.2-16.4,5.2c-6.2,0-11.1-1.5-16.4-5.2H1034.7z M1036,520.5
			c3.3,1.7,7.9,5.5,10.2,9.9l-28,55h-5.3l19.8-38.6c-4.1,3.1-8.6,4.6-14.1,4.6c-5.5,0-10.2-1.5-14.3-4.7h28.5l6.2-12.2
			C1041.7,529.3,1040.1,524.2,1036,520.5z"/>
		<path fill="#303152" d="M1070,520.5l4.8,4.2h-19.4l-4.7-4.2H1070z M1075.4,582.2v-56.9l4.6,4.1v52.8l12.2,3.2h-29L1075.4,582.2z"
			/>
		<path fill="#303152" d="M1096.1,540.9c0-3.2,0.7-10.4,6.5-15.5c-1.3,4.4-2,8.6-2,12.5c0,12.9,7.1,22,19.3,22c4.2,0,8.3-0.8,12-2.6
			c-3.8,3.6-9.1,5.2-15.1,5.2C1105.1,562.5,1096.1,554.7,1096.1,540.9z M1132.9,581.3c-4.9,3.7-10.2,5.2-14.9,5.2
			c-4.7,0-10.1-1.5-14.8-5.2H1132.9z M1118.1,519.5c5.7,0,10,1.5,14.9,5.2h-29.7C1108,521,1112.4,519.5,1118.1,519.5z M1133.6,525.4
			l4.6,4.1v46.9l-4.6,4.1V525.4z"/>
		<path fill="#303152" d="M244.8,677.3c6.7,0,12.7-1.1,18.4-4.5c-4.3,5.5-10.6,8.9-18.4,8.9c-7.8,0-14.8-3.4-19.2-8.9
			C231.4,676.2,238.1,677.3,244.8,677.3z M263.6,622.7l-12.3-3H268v27.4c0,15.6-2.7,22.3-4.3,25V622.7z"/>
		<path fill="#303152" d="M308.6,614.8l3,6c-10.2,20.1-26.6,52.5-37,60.9L308.6,614.8z M322.6,654.6c-5.6-11-9.7-23-11-33.8
			l30.6,60.9C334.9,675,328,665.3,322.6,654.6c-4.4,3.2-10,4.4-14.3,4.4c-4.3,0-10.1-1.2-14.5-4.4H322.6z"/>
		<path fill="#303152" d="M393.7,669.3c0-3.6-1.5-7.1-6.1-9.8l-39.2-22.8c-0.1-0.9-0.2-1.7-0.2-2.5c0-5.2,2.1-9.7,5.4-12.7
			c-0.7,2-1.2,4-1.2,6c0,3.3,1.3,6.3,4.7,8.3l40.4,23.5c0.4,1.6,0.6,3.1,0.6,4.5c0,4.9-2.2,9-5.7,11.8
			C393.1,673.6,393.7,671.5,393.7,669.3z M391.1,676.6c-5.7,3.7-13.2,5.2-21.3,5.2c-8.1,0-15.4-1.5-21.1-5.2H391.1z M375.1,614.8
			c7.6,0,14.3,1.5,20,5.2h-39.7C361,616.3,367.5,614.8,375.1,614.8z M375.1,598.9l17.4,13.4l-17.4-6.8l-17.4,6.8L375.1,598.9z"/>
		<path fill="#303152" d="M414.8,677.6V619l-12.2-3.2h36.8c6.2,0,14.1,0.6,19.4,4.2h-39.3v57.5l12.2,3.2h-29L414.8,677.6z
			 M441.4,653.8c16.6,0,24.4-15,18.3-33c6.1,4.4,6.8,12.1,6.8,15.2c0,12.9-9.5,20.2-21.7,20.2c-6.2,0-11.8-1.5-15.9-4.9
			C432.9,653,437.1,653.8,441.4,653.8z"/>
		<path fill="#303152" d="M470,680.8l12.2-4.2V619l-12.2-3.2h57.3c-6.7,3.5-13.3,4.2-21.9,4.2h-18.7v25.7h33
			c-6.6,3.5-13.2,4.2-21.9,4.2h-11.1c-0.1,13.1-2.1,25.4-4.6,30.9H470z M504.9,675.6c8.7,0,15.1,1.5,22.4,5.2h-45.1
			C489.5,677.1,496.1,675.6,504.9,675.6z"/>
		<path fill="#303152" d="M569.6,648.9h-19.6v28.7l12.2,3.2h-29l12.2-3.2V619l-12.2-3.2h35.2c6,0,13.7,0.6,19,4.2h-37.4v25.7h20.6
			c16.5,0,24-10.9,17.9-24.8c5.2,3.9,6.8,8.9,6.8,11.9c0,9.8-7.9,16.1-23.2,16.1l31,32.9C585.8,676.7,574.4,659.4,569.6,648.9z"/>
		<path fill="#303152" d="M625.5,677.1c7.1,0,13.5-1.2,19.6-4.8c-4.6,5.9-11.3,9.5-19.6,9.5s-15.8-3.6-20.4-9.5
			C611.2,675.9,618.4,677.1,625.5,677.1z M645.5,619l-13.1-3.2h17.7V645c0,16.6-2.9,23.8-4.6,26.6V619z"/>
		<path fill="#303152" d="M659.1,648.2c0-11.8,5.9-20.7,12.9-26.1c-4.6,7.3-6.8,15.7-6.8,23.8c0,17.4,10.2,33.3,28.3,33.3
			c18.2,0,28.2-15.7,28.2-33.1c0-8.1-2.2-16.6-6.8-24c7,5.4,13,14.3,13,26.1c0,18.6-15.2,33.6-34.4,33.6S659.1,666.8,659.1,648.2z
			 M693.5,614.8c7.2,0,12.5,1.5,18.4,5.2h-37C680.8,616.3,686.3,614.8,693.5,614.8z M684.6,598.9h6.4v6.4h-6.4V598.9z M696,598.9
			h6.4v6.4H696V598.9z"/>
		<path fill="#303152" d="M744.5,677.6V619l-12.2-3.2h36.8c6.2,0,14.1,0.6,19.4,4.2h-39.3v57.5l12.2,3.2h-29L744.5,677.6z
			 M771.2,653.8c16.6,0,24.4-15,18.3-33c6.1,4.4,6.8,12.1,6.8,15.2c0,12.9-9.5,20.2-21.7,20.2c-6.2,0-11.8-1.5-15.9-4.9
			C762.7,653,766.9,653.8,771.2,653.8z"/>
		<path fill="#303152" d="M817.9,647.8c0,14.9-3.5,27.2-6,33h-12.2l12.2-4.2v-61.7C814.4,620.5,817.9,632.9,817.9,647.8z
			 M834.7,675.6c8.7,0,15.1,1.5,22.4,5.2h-45.1C819.2,677.1,825.9,675.6,834.7,675.6z"/>
		<path fill="#303152" d="M930.2,672.9V619h-16.7l21.3-4.2v66.9l-60-62.1v57.9l12.2,3.2h-29l12.2-3.2v-62.7
			C888.4,624.5,917.3,651.4,930.2,672.9z M914,598.9v6.3l-30.6,7.1L914,598.9z"/>
		<path fill="#303152" d="M950.8,624.8l4.6-4.1v55.1l-4.6-4.1V624.8z M985.7,676.6c-4.7,3.7-9.1,5.2-14.8,5.2
			c-5.7,0-10-1.5-14.9-5.2H985.7z M971,614.8c4.7,0,10.1,1.5,14.8,5.2h-29.7C961,616.3,966.3,614.8,971,614.8z M988.4,663.4
			c0-12.9-7.1-22-19.3-22c-4.2,0-8.3,0.8-12,2.6c3.8-3.6,9.1-5.2,15.1-5.2c11.7,0,20.7,7.8,20.7,21.6c0,3.2-0.7,10.4-6.5,15.5
			C987.7,671.5,988.4,667.3,988.4,663.4z"/>
		<path fill="#303152" d="M999.8,671.5l35.1-40.2c1.6-1.9,2.9-4.2,2.9-6.6c0-1.4-0.4-2.8-1.5-4.2c2.3,1.9,5.1,5.6,6.2,9.1l-35,40.1
			c-1.7,1.9-2.9,4.4-2.9,6.9c0,1.4,0.4,2.8,1.4,4.2C1003.7,679,1000.9,675,999.8,671.5z M1019.3,614.8c6.4,0,11.2,1.5,16.5,5.2h-33
			C1008.1,616.3,1012.9,614.8,1019.3,614.8z M1025.6,675.6c7.3,0,12.7,1.5,18.8,5.2h-37.7C1012.7,677.1,1018.4,675.6,1025.6,675.6z"
			/>
		<path fill="#303152" d="M1056.4,624.8l4.6-4.1v55.1l-4.6-4.1V624.8z M1091.2,676.6c-4.7,3.7-9.1,5.2-14.8,5.2
			c-5.7,0-10-1.5-14.9-5.2H1091.2z M1076.5,614.8c4.7,0,10.1,1.5,14.8,5.2h-29.7C1066.6,616.3,1071.8,614.8,1076.5,614.8z
			 M1093.9,663.4c0-12.9-7.1-22-19.3-22c-4.2,0-8.3,0.8-12,2.6c3.8-3.6,9.1-5.2,15.1-5.2c11.7,0,20.7,7.8,20.7,21.6
			c0,3.2-0.7,10.4-6.5,15.5C1093.2,671.5,1093.9,667.3,1093.9,663.4z"/>
		<path fill="#303152" d="M1121.2,615.8l4.8,4.2h-19.4l-4.7-4.2H1121.2z M1126.6,677.6v-56.9l4.6,4.1v52.8l12.2,3.2h-29
			L1126.6,677.6z"/>
		<path fill="#303152" d="M1193.4,519.8l11.9,10.4h-48l-11.6-10.4H1193.4z M1206.8,672.8V531.7l11.4,10.2v131l30.2,7.9h-71.8
			L1206.8,672.8z"/>
		<path fill="#303152" d="M1407.9,517.3l-88.4,104c-25.8,30.2-48.5,53.5-68.6,61.9l88.2-104C1364.8,549,1387.8,525.7,1407.9,517.3z
			 M1320.7,596.8l-69.3-79.5C1285.3,531.2,1312.5,560.1,1320.7,596.8z M1407.9,683.2c-33.9-14.1-61.2-43.3-69.3-80.2L1407.9,683.2z"
			/>
	</g>
	<g>
		<g>
			<path fill="#303152" d="M238.5,719l1.3-4.7c-3-0.1-4-0.5-4.9-0.9h4.2l2.1-4.9l-1.1,4.9h5l2.1-4.9l-1.1,4.9h4.2
				c-0.8,0.3-1.6,0.6-3.7,0.8l-1.3,4.8h5c-0.9,0.4-1.8,0.6-4.2,0.8l-2.2,5.2l1.2-5.2c-0.7,0-1.5,0-2.5,0c-0.9,0-1.7,0-2.4,0
				l-2.3,5.2l1.3-5.2c-2.4-0.1-3.3-0.4-4.2-0.8H238.5z M240.5,714.3l-1.3,4.7h5.2l1.3-4.7c-0.9,0-1.9,0.1-3.3,0.1
				C241.8,714.4,241.1,714.4,240.5,714.3z"/>
			<path fill="#303152" d="M266.6,713.1v3.1H266l-0.3-1.5c-0.2-1-0.4-1-1.7-1h-1.4v9.3c0,0.3,0.1,0.3,0.4,0.3l1.3,0.1v0.5h-4.9v-0.5
				l1.3-0.1c0.3,0,0.4-0.1,0.4-0.3v-9.3h-1.4c-1.3,0-1.6,0-1.7,1l-0.3,1.5h-0.5v-3.1H266.6z"/>
			<path fill="#303152" d="M275.1,723.1c0,0.3,0.1,0.3,0.4,0.3l0.6,0.1v0.5h-3.4v-0.5l0.6-0.1c0.3,0,0.4-0.1,0.4-0.3v-4.3
				c0-1.4-0.5-2.2-1.6-2.2c-0.7,0-2.1,0.6-2.1,2.7v3.8c0,0.3,0.1,0.3,0.4,0.3l0.6,0.1v0.5h-3.4v-0.5l0.6-0.1c0.3,0,0.4-0.1,0.4-0.3
				v-9.4c0-0.3-0.1-0.3-0.4-0.3l-0.6-0.1v-0.5h2.4l0,1.5v2.1c0,0.3,0,0.9,0,0.9h0c0.5-1,1.4-1.6,2.7-1.6c1.8,0,2.3,1.5,2.3,2.7
				V723.1z"/>
			<path fill="#303152" d="M283.3,721.5h1.3c-0.3,1.8-1.9,2.7-3.5,2.7c-2.5,0-3.8-1.9-3.8-4.2c0-2.4,1.5-4.2,3.8-4.2
				c1.7,0,3.6,1.2,3.6,4.3h-6c0,2,0.7,3.4,2.5,3.4C282.4,723.4,283.2,722.7,283.3,721.5z M278.7,719.3h4.6c0-2-1-2.8-2.2-2.8
				C279.9,716.5,278.8,717.4,278.7,719.3z"/>
			<path fill="#303152" d="M294.2,715.8c1.7,0,3.2,0.9,3.4,2.7h-1.3c-0.1-1.3-0.9-2-2.1-2c-1.8,0-2.4,1.9-2.4,3.4
				c0,1.6,0.5,3.5,2.4,3.5c1.3,0,2-0.7,2.1-2h1.3c-0.3,1.8-1.8,2.7-3.5,2.7c-2.3,0-3.7-1.8-3.7-4.2
				C290.5,717.5,292,715.8,294.2,715.8z"/>
			<path fill="#303152" d="M303,724.2c-2.2,0-3.8-1.7-3.8-4.2s1.6-4.2,3.8-4.2c2.2,0,3.8,1.7,3.8,4.2S305.2,724.2,303,724.2z
				 M303,723.4c1.3,0,2.4-1.1,2.4-3.5c0-2.4-1-3.5-2.4-3.5c-1.3,0-2.4,1.1-2.4,3.5C300.7,722.3,301.7,723.4,303,723.4z"/>
			<path fill="#303152" d="M315.6,712.8l0,1.5v8.7c0,0.3,0.1,0.3,0.4,0.3l0.6,0.1v0.5l-2.2,0.1l-0.1-1.5h0c-0.5,0.9-1.3,1.7-2.6,1.7
				c-1.9,0-3.3-1.7-3.3-4.2c0-2.5,1.6-4.2,3.5-4.2c1.2,0,2,0.7,2.3,1.5h0c0-0.9,0-1.2,0-1.3v-2.2c0-0.3-0.1-0.3-0.4-0.3l-0.8-0.1
				v-0.5H315.6z M312.1,716.6c-1.3,0-2.3,1.2-2.3,3.4c0,2.2,1,3.4,2.3,3.4c1.1,0,2.3-0.9,2.3-3.4
				C314.4,717.4,313.4,716.6,312.1,716.6z"/>
			<path fill="#303152" d="M324.1,721.5h1.3c-0.3,1.8-1.9,2.7-3.5,2.7c-2.5,0-3.8-1.9-3.8-4.2c0-2.4,1.5-4.2,3.8-4.2
				c1.7,0,3.6,1.2,3.6,4.3h-6c0,2,0.7,3.4,2.5,3.4C323.1,723.4,323.9,722.7,324.1,721.5z M319.5,719.3h4.6c0-2-1-2.8-2.2-2.8
				C320.6,716.5,319.6,717.4,319.5,719.3z"/>
			<path fill="#303152" d="M332.2,713.7c0-0.3-0.1-0.3-0.4-0.3l-0.6-0.1v-0.5h2.4l0,1.5v2c0,0.4,0,0.8,0,1.2h0
				c0.5-1,1.3-1.7,2.6-1.7c1.9,0,3.3,1.7,3.3,4.2c0,2.5-1.6,4.2-3.5,4.2c-1.2,0-2.1-0.6-2.5-1.3h0l-0.7,1.1h-0.5
				c0.1-0.9,0.1-1.9,0.1-2.8V713.7z M335.6,723.4c1.3,0,2.3-1.2,2.3-3.4c0-2.2-1-3.4-2.3-3.4c-1.1,0-2.3,0.9-2.3,3.4
				C333.3,722.5,334.4,723.4,335.6,723.4z"/>
			<path fill="#303152" d="M346.9,721.5h1.3c-0.3,1.8-1.9,2.7-3.5,2.7c-2.5,0-3.8-1.9-3.8-4.2c0-2.4,1.5-4.2,3.8-4.2
				c1.7,0,3.6,1.2,3.6,4.3h-6c0,2,0.7,3.4,2.5,3.4C346,723.4,346.8,722.7,346.9,721.5z M342.3,719.3h4.6c0-2-1-2.8-2.2-2.8
				C343.5,716.5,342.5,717.4,342.3,719.3z"/>
			<path fill="#303152" d="M352.2,712.8l0,1.5v8.8c0,0.3,0.1,0.3,0.4,0.3l0.6,0.1v0.5h-3.4v-0.5l0.6-0.1c0.3,0,0.4-0.1,0.4-0.3v-9.4
				c0-0.3-0.1-0.3-0.4-0.3l-0.6-0.1v-0.5H352.2z"/>
			<path fill="#303152" d="M358.4,724.2c-2.2,0-3.8-1.7-3.8-4.2s1.6-4.2,3.8-4.2c2.2,0,3.8,1.7,3.8,4.2S360.6,724.2,358.4,724.2z
				 M358.4,723.4c1.3,0,2.4-1.1,2.4-3.5c0-2.4-1-3.5-2.4-3.5c-1.3,0-2.4,1.1-2.4,3.5C356,722.3,357.1,723.4,358.4,723.4z"/>
			<path fill="#303152" d="M372.5,717.5c0.2-0.6,0.2-1-0.4-1l-0.4,0v-0.5h2.7v0.5l-0.4,0c-0.5,0-0.6,0.2-0.7,0.8l-1.9,6.8h-0.8
				l-2.1-6.2l-2,6.2h-0.7l-2-7.1c-0.1-0.3-0.2-0.5-0.6-0.5l-0.4,0v-0.5h3.3v0.5l-0.5,0c-0.3,0-0.4,0.1-0.4,0.3l1.3,5.3l1.9-6.2h0.8
				l2,6.2L372.5,717.5z"/>
			<path fill="#303152" d="M382.1,717.5L382.1,717.5c0.4-1,1.2-1.7,2.3-1.7h0.8v1.2H384c-1.3,0-2,0.6-2,2.3v3.8
				c0,0.3,0.1,0.3,0.4,0.3l1.3,0.1v0.5h-4.1v-0.5l0.6-0.1c0.3,0,0.4-0.1,0.4-0.3v-6.2c0-0.2-0.1-0.3-0.4-0.4l-0.6-0.1v-0.5h2.3
				L382.1,717.5z"/>
			<path fill="#303152" d="M392.1,721.5h1.3c-0.3,1.8-1.9,2.7-3.5,2.7c-2.5,0-3.8-1.9-3.8-4.2c0-2.4,1.5-4.2,3.8-4.2
				c1.7,0,3.6,1.2,3.6,4.3h-6c0,2,0.7,3.4,2.5,3.4C391.1,723.4,391.9,722.7,392.1,721.5z M387.5,719.3h4.6c0-2-1-2.8-2.2-2.8
				C388.6,716.5,387.6,717.4,387.5,719.3z"/>
			<path fill="#303152" d="M397,717.4L397,717.4c0.5-1,1.3-1.7,2.6-1.7c1.9,0,3.3,1.7,3.3,4.2c0,2.5-1.6,4.2-3.5,4.2
				c-1.2,0-2-0.7-2.3-1.5h0l0,1.1v2.1c0,0.3,0.1,0.3,0.4,0.3l0.9,0.1v0.5h-3.7v-0.5l0.6-0.1c0.3,0,0.4-0.1,0.4-0.3v-9
				c0-0.2-0.1-0.3-0.4-0.4l-0.6-0.1v-0.5h2.3L397,717.4z M399.3,716.6c-1.2,0-2.3,1.2-2.3,3.4c0,2.2,1,3.4,2.3,3.4
				c1.2,0,2.2-0.9,2.2-3.4C401.5,717.5,400.3,716.6,399.3,716.6z"/>
			<path fill="#303152" d="M407,717.5L407,717.5c0.4-1,1.2-1.7,2.3-1.7h0.8v1.2H409c-1.3,0-2,0.6-2,2.3v3.8c0,0.3,0.1,0.3,0.4,0.3
				l1.3,0.1v0.5h-4.1v-0.5l0.6-0.1c0.3,0,0.4-0.1,0.4-0.3v-6.2c0-0.2-0.1-0.3-0.4-0.4l-0.6-0.1v-0.5h2.3L407,717.5z"/>
			<path fill="#303152" d="M417,721.5h1.3c-0.3,1.8-1.9,2.7-3.5,2.7c-2.5,0-3.8-1.9-3.8-4.2c0-2.4,1.5-4.2,3.8-4.2
				c1.7,0,3.6,1.2,3.6,4.3h-6c0,2,0.7,3.4,2.5,3.4C416.1,723.4,416.8,722.7,417,721.5z M412.4,719.3h4.6c0-2-1-2.8-2.2-2.8
				C413.5,716.5,412.5,717.4,412.4,719.3z"/>
			<path fill="#303152" d="M423.4,723.4c1.2,0,2.1-0.6,2.1-1.4c0-0.9-0.7-1.3-2.1-1.6l-1-0.2c-1.3-0.3-2.3-1-2.3-2.2
				c0-1.3,1.2-2.2,3-2.2c1.6,0,3,0.7,3.3,2.3h-1.3c-0.1-1.1-1-1.6-2.1-1.6c-0.9,0-1.8,0.5-1.8,1.3c0,0.7,0.6,1.1,1.6,1.3l0.9,0.2
				c1.5,0.3,2.9,0.9,2.9,2.4c0,1.6-1.4,2.5-3.3,2.5c-2.3,0-3.4-1.2-3.5-2.7h1.3C421.3,722.7,422.2,723.4,423.4,723.4z"/>
			<path fill="#303152" d="M434.1,721.5h1.3c-0.3,1.8-1.9,2.7-3.5,2.7c-2.5,0-3.8-1.9-3.8-4.2c0-2.4,1.5-4.2,3.8-4.2
				c1.7,0,3.6,1.2,3.6,4.3h-6c0,2,0.7,3.4,2.5,3.4C433.2,723.4,434,722.7,434.1,721.5z M429.5,719.3h4.6c0-2-1-2.8-2.2-2.8
				C430.6,716.5,429.6,717.4,429.5,719.3z"/>
			<path fill="#303152" d="M444.5,723.1c0,0.3,0.1,0.3,0.4,0.3l0.6,0.1v0.5h-3.4v-0.5l0.6-0.1c0.3,0,0.4-0.1,0.4-0.3v-4.3
				c0-1.4-0.4-2.2-1.6-2.2c-0.7,0-2.1,0.6-2.1,2.7v3.8c0,0.3,0.1,0.3,0.4,0.3l0.6,0.1v0.5h-3.4v-0.5l0.6-0.1c0.3,0,0.4-0.1,0.4-0.3
				v-6.2c0-0.2-0.1-0.3-0.4-0.4l-0.6-0.1v-0.5h2.3l0,1.5h0c0.5-1,1.4-1.6,2.7-1.6c1.9,0,2.3,1.5,2.3,2.7V723.1z"/>
			<path fill="#303152" d="M451.4,716.7H449v5.2c0,1,0.3,1.2,1.1,1.2h1.3v0.9h-1.6c-1.6,0-2.1-0.3-2.1-2v-5.3h-1.5v-0.8h1.5v-2.6
				h1.3v2.6h2.4V716.7z"/>
			<path fill="#303152" d="M456.1,723.4c1.2,0,2.1-0.6,2.1-1.4c0-0.9-0.7-1.3-2.1-1.6l-1-0.2c-1.3-0.3-2.3-1-2.3-2.2
				c0-1.3,1.2-2.2,3-2.2c1.6,0,3,0.7,3.3,2.3h-1.3c-0.1-1.1-1-1.6-2.1-1.6c-0.9,0-1.8,0.5-1.8,1.3c0,0.7,0.6,1.1,1.6,1.3l0.9,0.2
				c1.5,0.3,2.9,0.9,2.9,2.4c0,1.6-1.4,2.5-3.3,2.5c-2.3,0-3.4-1.2-3.5-2.7h1.3C454.1,722.7,454.9,723.4,456.1,723.4z"/>
			<path fill="#303152" d="M460.8,722.2h1.8v1.9l-1.1,2.4H461l0.6-2.5h-0.7V722.2z"/>
			<path fill="#303152" d="M472.5,723.4c1.2,0,2.1-0.6,2.1-1.4c0-0.9-0.7-1.3-2.1-1.6l-1-0.2c-1.3-0.3-2.3-1-2.3-2.2
				c0-1.3,1.2-2.2,3-2.2c1.6,0,3,0.7,3.3,2.3h-1.3c-0.1-1.1-1-1.6-2.1-1.6c-0.9,0-1.8,0.5-1.8,1.3c0,0.7,0.6,1.1,1.6,1.3l0.9,0.2
				c1.5,0.3,2.9,0.9,2.9,2.4c0,1.6-1.4,2.5-3.3,2.5c-2.3,0-3.4-1.2-3.5-2.7h1.3C470.4,722.7,471.3,723.4,472.5,723.4z"/>
			<path fill="#303152" d="M483.2,721.5h1.3c-0.3,1.8-1.9,2.7-3.5,2.7c-2.5,0-3.8-1.9-3.8-4.2c0-2.4,1.5-4.2,3.8-4.2
				c1.7,0,3.6,1.2,3.6,4.3h-6c0,2,0.7,3.4,2.5,3.4C482.3,723.4,483.1,722.7,483.2,721.5z M478.6,719.3h4.6c0-2-1-2.8-2.2-2.8
				C479.7,716.5,478.7,717.4,478.6,719.3z"/>
			<path fill="#303152" d="M488.2,717.4L488.2,717.4c0.5-1,1.3-1.7,2.6-1.7c1.9,0,3.3,1.7,3.3,4.2c0,2.5-1.6,4.2-3.5,4.2
				c-1.2,0-2-0.7-2.3-1.5h0l0,1.1v2.1c0,0.3,0.1,0.3,0.4,0.3l0.9,0.1v0.5h-3.7v-0.5l0.6-0.1c0.3,0,0.4-0.1,0.4-0.3v-9
				c0-0.2-0.1-0.3-0.4-0.4l-0.6-0.1v-0.5h2.3L488.2,717.4z M490.4,716.6c-1.2,0-2.3,1.2-2.3,3.4c0,2.2,1,3.4,2.3,3.4
				c1.2,0,2.2-0.9,2.2-3.4C492.7,717.5,491.5,716.6,490.4,716.6z"/>
			<path fill="#303152" d="M500.8,718.4c0-1.4-0.6-1.9-1.8-1.9c-1.4,0-1.8,0.9-1.9,1.8h-1.3c0.1-1.5,1.4-2.5,3.2-2.5
				c2.1,0,3.1,0.7,3.1,2.7c0,1,0,1.7,0,2.6c0,0.8,0,1.2,0,2c0,0.3,0.1,0.3,0.4,0.3l0.6,0.1v0.5L501,724l-0.1-1.5h0
				c-0.4,0.9-1.3,1.6-2.8,1.6c-1.4,0-2.5-0.9-2.5-2.2c0-1.9,2.3-2.4,5.2-2.7V718.4z M500.9,719.9c-2.1,0.2-3.8,0.5-3.8,2
				c0,0.8,0.6,1.4,1.6,1.4c1.2,0,2.2-0.9,2.2-3V719.9z"/>
			<path fill="#303152" d="M506.9,717.5L506.9,717.5c0.4-1,1.2-1.7,2.3-1.7h0.8v1.2h-1.2c-1.3,0-2,0.6-2,2.3v3.8
				c0,0.3,0.1,0.3,0.4,0.3l1.3,0.1v0.5h-4.1v-0.5l0.6-0.1c0.3,0,0.4-0.1,0.4-0.3v-6.2c0-0.2-0.1-0.3-0.4-0.4l-0.6-0.1v-0.5h2.3
				L506.9,717.5z"/>
			<path fill="#303152" d="M516.1,718.4c0-1.4-0.6-1.9-1.8-1.9c-1.4,0-1.8,0.9-1.9,1.8h-1.3c0.1-1.5,1.4-2.5,3.2-2.5
				c2.1,0,3.1,0.7,3.1,2.7c0,1,0,1.7,0,2.6c0,0.8,0,1.2,0,2c0,0.3,0.1,0.3,0.4,0.3l0.6,0.1v0.5l-2.2,0.1l-0.1-1.5h0
				c-0.4,0.9-1.3,1.6-2.8,1.6c-1.4,0-2.5-0.9-2.5-2.2c0-1.9,2.3-2.4,5.2-2.7V718.4z M516.1,719.9c-2.1,0.2-3.8,0.5-3.8,2
				c0,0.8,0.6,1.4,1.6,1.4c1.2,0,2.2-0.9,2.2-3V719.9z"/>
			<path fill="#303152" d="M524.4,716.7h-2.4v5.2c0,1,0.3,1.2,1.1,1.2h1.3v0.9h-1.6c-1.6,0-2.1-0.3-2.1-2v-5.3h-1.5v-0.8h1.5v-2.6
				h1.3v2.6h2.4V716.7z"/>
			<path fill="#303152" d="M531.6,721.5h1.3c-0.3,1.8-1.9,2.7-3.5,2.7c-2.5,0-3.8-1.9-3.8-4.2c0-2.4,1.5-4.2,3.8-4.2
				c1.7,0,3.6,1.2,3.6,4.3h-6c0,2,0.7,3.4,2.5,3.4C530.6,723.4,531.4,722.7,531.6,721.5z M527,719.3h4.6c0-2-1-2.8-2.2-2.8
				C528.1,716.5,527.1,717.4,527,719.3z"/>
			<path fill="#303152" d="M541.8,712.8l0,1.5v8.7c0,0.3,0.1,0.3,0.4,0.3l0.6,0.1v0.5l-2.2,0.1l-0.1-1.5h0c-0.5,0.9-1.3,1.7-2.6,1.7
				c-1.9,0-3.3-1.7-3.3-4.2c0-2.5,1.6-4.2,3.5-4.2c1.2,0,2,0.7,2.3,1.5h0c0-0.9,0-1.2,0-1.3v-2.2c0-0.3-0.1-0.3-0.4-0.3l-0.8-0.1
				v-0.5H541.8z M538.3,716.6c-1.3,0-2.3,1.2-2.3,3.4c0,2.2,1,3.4,2.3,3.4c1.1,0,2.3-0.9,2.3-3.4
				C540.6,717.4,539.6,716.6,538.3,716.6z"/>
			<path fill="#303152" d="M549.5,713.7c0-0.3-0.1-0.3-0.4-0.3l-0.6-0.1v-0.5h2.4l0,1.5v2c0,0.4,0,0.8,0,1.2h0
				c0.5-1,1.3-1.7,2.6-1.7c1.9,0,3.3,1.7,3.3,4.2c0,2.5-1.6,4.2-3.5,4.2c-1.2,0-2.1-0.6-2.5-1.3h0l-0.7,1.1h-0.5
				c0.1-0.9,0.1-1.9,0.1-2.8V713.7z M553,723.4c1.3,0,2.3-1.2,2.3-3.4c0-2.2-1-3.4-2.3-3.4c-1.1,0-2.3,0.9-2.3,3.4
				C550.7,722.5,551.7,723.4,553,723.4z"/>
			<path fill="#303152" d="M557.9,726.8v-0.9h1.1c0.9,0,1.1,0,1.7-1.7l0.1-0.3l-2.6-6.9c-0.1-0.4-0.2-0.4-0.6-0.5l-0.4,0v-0.5h3.4
				v0.5l-0.5,0c-0.3,0-0.5,0.1-0.4,0.3l1.9,5.8l1.8-5.1c0.3-0.7,0.3-1-0.4-1l-0.4,0v-0.5h2.9v0.5l-0.4,0c-0.5,0-0.6,0.3-0.9,0.8
				l-2.7,7c-1,2.6-1.2,2.6-2.7,2.6H557.9z"/>
			<path fill="#303152" d="M574,723.4c1.2,0,2.1-0.6,2.1-1.4c0-0.9-0.7-1.3-2.1-1.6l-1-0.2c-1.3-0.3-2.3-1-2.3-2.2
				c0-1.3,1.2-2.2,3-2.2c1.6,0,3,0.7,3.3,2.3h-1.3c-0.1-1.1-1-1.6-2.1-1.6c-0.9,0-1.8,0.5-1.8,1.3c0,0.7,0.6,1.1,1.6,1.3l0.9,0.2
				c1.5,0.3,2.9,0.9,2.9,2.4c0,1.6-1.4,2.5-3.3,2.5c-2.3,0-3.4-1.2-3.5-2.7h1.3C572,722.7,572.8,723.4,574,723.4z"/>
			<path fill="#303152" d="M581.1,712.8l0,1.5v8.8c0,0.3,0.1,0.3,0.4,0.3l0.6,0.1v0.5h-3.4v-0.5l0.6-0.1c0.3,0,0.4-0.1,0.4-0.3v-9.4
				c0-0.3-0.1-0.3-0.4-0.3l-0.6-0.1v-0.5H581.1z"/>
			<path fill="#303152" d="M588.9,718.4c0-1.4-0.6-1.9-1.8-1.9c-1.4,0-1.8,0.9-1.9,1.8h-1.3c0.1-1.5,1.4-2.5,3.2-2.5
				c2.1,0,3.1,0.7,3.1,2.7c0,1,0,1.7,0,2.6c0,0.8,0,1.2,0,2c0,0.3,0.1,0.3,0.4,0.3l0.6,0.1v0.5l-2.2,0.1l-0.1-1.5h0
				c-0.4,0.9-1.3,1.6-2.8,1.6c-1.4,0-2.5-0.9-2.5-2.2c0-1.9,2.3-2.4,5.2-2.7V718.4z M588.9,719.9c-2.1,0.2-3.8,0.5-3.8,2
				c0,0.8,0.6,1.4,1.6,1.4c1.2,0,2.2-0.9,2.2-3V719.9z"/>
			<path fill="#303152" d="M595.9,723.4c1.2,0,2.1-0.6,2.1-1.4c0-0.9-0.7-1.3-2.1-1.6l-1-0.2c-1.3-0.3-2.3-1-2.3-2.2
				c0-1.3,1.2-2.2,3-2.2c1.6,0,3,0.7,3.3,2.3h-1.3c-0.1-1.1-1-1.6-2.1-1.6c-0.9,0-1.8,0.5-1.8,1.3c0,0.7,0.6,1.1,1.6,1.3l0.9,0.2
				c1.5,0.3,2.9,0.9,2.9,2.4c0,1.6-1.4,2.5-3.3,2.5c-2.3,0-3.4-1.2-3.5-2.7h1.3C593.8,722.7,594.7,723.4,595.9,723.4z"/>
			<path fill="#303152" d="M607.9,723.1c0,0.3,0.1,0.3,0.4,0.3l0.6,0.1v0.5h-3.4v-0.5l0.6-0.1c0.3,0,0.4-0.1,0.4-0.3v-4.3
				c0-1.4-0.5-2.2-1.6-2.2c-0.7,0-2.1,0.6-2.1,2.7v3.8c0,0.3,0.1,0.3,0.4,0.3l0.6,0.1v0.5h-3.4v-0.5l0.6-0.1c0.3,0,0.4-0.1,0.4-0.3
				v-9.4c0-0.3-0.1-0.3-0.4-0.3l-0.6-0.1v-0.5h2.4l0,1.5v2.1c0,0.3,0,0.9,0,0.9h0c0.5-1,1.4-1.6,2.7-1.6c1.8,0,2.3,1.5,2.3,2.7
				V723.1z"/>
			<path fill="#303152" d="M616.1,721.5h1.3c-0.3,1.8-1.9,2.7-3.5,2.7c-2.5,0-3.8-1.9-3.8-4.2c0-2.4,1.5-4.2,3.8-4.2
				c1.7,0,3.6,1.2,3.6,4.3h-6c0,2,0.7,3.4,2.5,3.4C615.2,723.4,616,722.7,616.1,721.5z M611.5,719.3h4.6c0-2-1-2.8-2.2-2.8
				C612.6,716.5,611.6,717.4,611.5,719.3z"/>
			<path fill="#303152" d="M622.5,723.4c1.2,0,2.1-0.6,2.1-1.4c0-0.9-0.7-1.3-2.1-1.6l-1-0.2c-1.3-0.3-2.3-1-2.3-2.2
				c0-1.3,1.2-2.2,3-2.2c1.6,0,3,0.7,3.3,2.3h-1.3c-0.1-1.1-1-1.6-2.1-1.6c-0.9,0-1.8,0.5-1.8,1.3c0,0.7,0.6,1.1,1.6,1.3l0.9,0.2
				c1.5,0.3,2.9,0.9,2.9,2.4c0,1.6-1.4,2.5-3.3,2.5c-2.3,0-3.4-1.2-3.5-2.7h1.3C620.4,722.7,621.3,723.4,622.5,723.4z"/>
			<path fill="#303152" d="M627.2,722.2h1.8v1.9l-1.1,2.4h-0.6l0.6-2.5h-0.7V722.2z"/>
			<path fill="#303152" d="M640.1,716.7h-2.4v5.2c0,1,0.3,1.2,1.1,1.2h1.3v0.9h-1.6c-1.6,0-2.1-0.3-2.1-2v-5.3h-1.5v-0.8h1.5v-2.6
				h1.3v2.6h2.4V716.7z"/>
			<path fill="#303152" d="M648.7,723.1c0,0.3,0.1,0.3,0.4,0.3l0.6,0.1v0.5h-3.4v-0.5l0.6-0.1c0.3,0,0.4-0.1,0.4-0.3v-4.3
				c0-1.4-0.5-2.2-1.6-2.2c-0.7,0-2.1,0.6-2.1,2.7v3.8c0,0.3,0.1,0.3,0.4,0.3l0.6,0.1v0.5h-3.4v-0.5l0.6-0.1c0.3,0,0.4-0.1,0.4-0.3
				v-9.4c0-0.3-0.1-0.3-0.4-0.3l-0.6-0.1v-0.5h2.4l0,1.5v2.1c0,0.3,0,0.9,0,0.9h0c0.5-1,1.4-1.6,2.7-1.6c1.8,0,2.3,1.5,2.3,2.7
				V723.1z"/>
			<path fill="#303152" d="M656.9,721.5h1.3c-0.3,1.8-1.9,2.7-3.5,2.7c-2.5,0-3.8-1.9-3.8-4.2c0-2.4,1.5-4.2,3.8-4.2
				c1.7,0,3.6,1.2,3.6,4.3h-6c0,2,0.7,3.4,2.5,3.4C656,723.4,656.8,722.7,656.9,721.5z M652.3,719.3h4.6c0-2-1-2.8-2.2-2.8
				C653.4,716.5,652.4,717.4,652.3,719.3z"/>
			<path fill="#303152" d="M667.6,723.4c1.2,0,2.1-0.6,2.1-1.4c0-0.9-0.7-1.3-2.1-1.6l-1-0.2c-1.3-0.3-2.3-1-2.3-2.2
				c0-1.3,1.2-2.2,3-2.2c1.6,0,3,0.7,3.3,2.3h-1.3c-0.1-1.1-1-1.6-2.1-1.6c-0.9,0-1.8,0.5-1.8,1.3c0,0.7,0.6,1.1,1.6,1.3l0.9,0.2
				c1.5,0.3,2.9,0.9,2.9,2.4c0,1.6-1.4,2.5-3.3,2.5c-2.3,0-3.4-1.2-3.5-2.7h1.3C665.5,722.7,666.3,723.4,667.6,723.4z"/>
			<path fill="#303152" d="M678.3,721.5h1.3c-0.3,1.8-1.9,2.7-3.5,2.7c-2.5,0-3.8-1.9-3.8-4.2c0-2.4,1.5-4.2,3.8-4.2
				c1.7,0,3.6,1.2,3.6,4.3h-6c0,2,0.7,3.4,2.5,3.4C677.3,723.4,678.1,722.7,678.3,721.5z M673.7,719.3h4.6c0-2-1-2.8-2.2-2.8
				C674.8,716.5,673.8,717.4,673.7,719.3z"/>
			<path fill="#303152" d="M685.8,716.7h-2.4v5.2c0,1,0.3,1.2,1.1,1.2h1.3v0.9h-1.6c-1.6,0-2.1-0.3-2.1-2v-5.3h-1.5v-0.8h1.5v-2.6
				h1.3v2.6h2.4V716.7z"/>
			<path fill="#303152" d="M695.1,724.2c-2.2,0-3.8-1.7-3.8-4.2s1.6-4.2,3.8-4.2c2.2,0,3.8,1.7,3.8,4.2S697.3,724.2,695.1,724.2z
				 M695.1,723.4c1.3,0,2.4-1.1,2.4-3.5c0-2.4-1-3.5-2.4-3.5c-1.3,0-2.4,1.1-2.4,3.5C692.8,722.3,693.8,723.4,695.1,723.4z"/>
			<path fill="#303152" d="M704.8,724h-4.1v-0.5l0.6-0.1c0.3,0,0.4-0.1,0.4-0.3v-6.4h-1.1v-0.8h1.1v-1c0-1.6,0.7-2.1,2.8-2.1h1.2
				v0.9h-1.3c-1.1,0-1.4,0.1-1.4,1.1v1.1h2.7v0.8H703v6.4c0,0.3,0.1,0.3,0.4,0.3l1.4,0.1V724z"/>
			<path fill="#303152" d="M236.9,730.8l0,1.5v8.8c0,0.3,0.1,0.3,0.4,0.3l0.6,0.1v0.5h-3.4v-0.5l0.6-0.1c0.3,0,0.4-0.1,0.4-0.3v-9.4
				c0-0.3-0.1-0.3-0.4-0.3l-0.6-0.1v-0.5H236.9z"/>
			<path fill="#303152" d="M245.4,739.4h1.3c-0.3,1.8-1.9,2.7-3.5,2.7c-2.5,0-3.8-1.9-3.8-4.2c0-2.4,1.5-4.2,3.8-4.2
				c1.7,0,3.6,1.2,3.6,4.3h-6c0,2,0.7,3.4,2.5,3.4C244.5,741.4,245.3,740.7,245.4,739.4z M240.8,737.3h4.6c0-2-1-2.8-2.2-2.8
				C241.9,734.4,240.9,735.4,240.8,737.3z"/>
			<path fill="#303152" d="M253,734.6h-2.4v5.2c0,1,0.3,1.2,1.1,1.2h1.3v0.9h-1.6c-1.6,0-2.1-0.3-2.1-2v-5.3h-1.5v-0.8h1.5v-2.6h1.3
				v2.6h2.4V734.6z"/>
			<path fill="#303152" d="M258.9,734.6h-2.4v5.2c0,1,0.3,1.2,1.1,1.2h1.3v0.9h-1.6c-1.6,0-2.1-0.3-2.1-2v-5.3h-1.5v-0.8h1.5v-2.6
				h1.3v2.6h2.4V734.6z"/>
			<path fill="#303152" d="M266.1,739.4h1.3c-0.3,1.8-1.9,2.7-3.5,2.7c-2.5,0-3.8-1.9-3.8-4.2c0-2.4,1.5-4.2,3.8-4.2
				c1.7,0,3.6,1.2,3.6,4.3h-6c0,2,0.7,3.4,2.5,3.4C265.2,741.4,266,740.7,266.1,739.4z M261.5,737.3h4.6c0-2-1-2.8-2.2-2.8
				C262.6,734.4,261.6,735.4,261.5,737.3z"/>
			<path fill="#303152" d="M271.5,735.5L271.5,735.5c0.4-1,1.2-1.7,2.3-1.7h0.8v1.2h-1.2c-1.3,0-2,0.6-2,2.3v3.8
				c0,0.3,0.1,0.3,0.4,0.3l1.3,0.1v0.5h-4.1v-0.5l0.6-0.1c0.3,0,0.4-0.1,0.4-0.3v-6.2c0-0.2-0.1-0.3-0.4-0.4l-0.6-0.1v-0.5h2.3
				L271.5,735.5z"/>
			<path fill="#303152" d="M279.1,741.4c1.2,0,2.1-0.6,2.1-1.4c0-0.9-0.7-1.3-2.1-1.6l-1-0.2c-1.3-0.3-2.3-1-2.3-2.2
				c0-1.3,1.2-2.2,3-2.2c1.6,0,3,0.7,3.3,2.3h-1.3c-0.1-1.1-1-1.6-2.1-1.6c-0.9,0-1.8,0.5-1.8,1.3c0,0.7,0.6,1.1,1.6,1.3l0.9,0.2
				c1.5,0.3,2.9,0.9,2.9,2.4c0,1.6-1.4,2.5-3.3,2.5c-2.3,0-3.4-1.2-3.5-2.7h1.3C277,740.7,277.8,741.4,279.1,741.4z"/>
			<path fill="#303152" d="M293.5,740.5L293.5,740.5c-0.5,1-1.3,1.6-2.6,1.6c-1.8,0-2.2-1.5-2.2-2.7v-4.6c0-0.2-0.1-0.3-0.4-0.4
				l-0.6-0.1v-0.5h2.4l0,1.5v3.8c0,1.4,0.4,2.2,1.5,2.2c0.7,0,2-0.6,2-2.6v-3.8c0-0.2-0.1-0.3-0.4-0.4l-0.6-0.1v-0.5h2.4l0,1.5v5.6
				c0,0.3,0.1,0.3,0.4,0.3l0.6,0.1v0.5l-2.3,0.1L293.5,740.5z"/>
			<path fill="#303152" d="M300.6,741.4c1.2,0,2.1-0.6,2.1-1.4c0-0.9-0.7-1.3-2.1-1.6l-1-0.2c-1.3-0.3-2.3-1-2.3-2.2
				c0-1.3,1.2-2.2,3-2.2c1.6,0,3,0.7,3.3,2.3h-1.3c-0.1-1.1-1-1.6-2.1-1.6c-0.9,0-1.8,0.5-1.8,1.3c0,0.7,0.6,1.1,1.6,1.3l0.9,0.2
				c1.5,0.3,2.9,0.9,2.9,2.4c0,1.6-1.4,2.5-3.3,2.5c-2.3,0-3.4-1.2-3.5-2.7h1.3C298.5,740.7,299.4,741.4,300.6,741.4z"/>
			<path fill="#303152" d="M311.3,739.4h1.3c-0.3,1.8-1.9,2.7-3.5,2.7c-2.5,0-3.8-1.9-3.8-4.2c0-2.4,1.5-4.2,3.8-4.2
				c1.7,0,3.6,1.2,3.6,4.3h-6c0,2,0.7,3.4,2.5,3.4C310.4,741.4,311.2,740.7,311.3,739.4z M306.7,737.3h4.6c0-2-1-2.8-2.2-2.8
				C307.8,734.4,306.8,735.4,306.7,737.3z"/>
			<path fill="#303152" d="M321.5,730.8l0,1.5v8.7c0,0.3,0.1,0.3,0.4,0.3l0.6,0.1v0.5l-2.2,0.1l-0.1-1.5h0c-0.5,0.9-1.3,1.7-2.6,1.7
				c-1.9,0-3.3-1.7-3.3-4.2c0-2.5,1.6-4.2,3.5-4.2c1.2,0,2,0.7,2.3,1.5h0c0-0.9,0-1.2,0-1.3v-2.2c0-0.3-0.1-0.3-0.4-0.3l-0.8-0.1
				v-0.5H321.5z M318.1,734.5c-1.3,0-2.3,1.2-2.3,3.4c0,2.2,1,3.4,2.3,3.4c1.1,0,2.3-0.9,2.3-3.4
				C320.3,735.4,319.3,734.5,318.1,734.5z"/>
			<path fill="#303152" d="M333.1,734.6h-2.4v5.2c0,1,0.3,1.2,1.1,1.2h1.3v0.9h-1.6c-1.6,0-2.1-0.3-2.1-2v-5.3h-1.5v-0.8h1.5v-2.6
				h1.3v2.6h2.4V734.6z"/>
			<path fill="#303152" d="M338.1,742.1c-2.2,0-3.8-1.7-3.8-4.2s1.6-4.2,3.8-4.2c2.2,0,3.8,1.7,3.8,4.2S340.2,742.1,338.1,742.1z
				 M338.1,741.4c1.3,0,2.4-1.1,2.4-3.5c0-2.4-1-3.5-2.4-3.5c-1.3,0-2.4,1.1-2.4,3.5C335.7,740.3,336.7,741.4,338.1,741.4z"/>
			<path fill="#303152" d="M354.8,730.8l0,1.5v8.7c0,0.3,0.1,0.3,0.4,0.3l0.6,0.1v0.5l-2.2,0.1l-0.1-1.5h0c-0.5,0.9-1.3,1.7-2.6,1.7
				c-1.9,0-3.3-1.7-3.3-4.2c0-2.5,1.6-4.2,3.5-4.2c1.2,0,2,0.7,2.3,1.5h0c0-0.9,0-1.2,0-1.3v-2.2c0-0.3-0.1-0.3-0.4-0.3l-0.8-0.1
				v-0.5H354.8z M351.4,734.5c-1.3,0-2.3,1.2-2.3,3.4c0,2.2,1,3.4,2.3,3.4c1.1,0,2.3-0.9,2.3-3.4
				C353.6,735.4,352.6,734.5,351.4,734.5z"/>
			<path fill="#303152" d="M363.3,739.4h1.3c-0.3,1.8-1.9,2.7-3.5,2.7c-2.5,0-3.8-1.9-3.8-4.2c0-2.4,1.5-4.2,3.8-4.2
				c1.7,0,3.6,1.2,3.6,4.3h-6c0,2,0.7,3.4,2.5,3.4C362.4,741.4,363.2,740.7,363.3,739.4z M358.7,737.3h4.6c0-2-1-2.8-2.2-2.8
				C359.8,734.4,358.8,735.4,358.7,737.3z"/>
			<path fill="#303152" d="M369.7,741.4c1.2,0,2.1-0.6,2.1-1.4c0-0.9-0.7-1.3-2.1-1.6l-1-0.2c-1.3-0.3-2.3-1-2.3-2.2
				c0-1.3,1.2-2.2,3-2.2c1.6,0,3,0.7,3.3,2.3h-1.3c-0.1-1.1-1-1.6-2.1-1.6c-0.9,0-1.8,0.5-1.8,1.3c0,0.7,0.6,1.1,1.6,1.3l0.9,0.2
				c1.5,0.3,2.9,0.9,2.9,2.4c0,1.6-1.4,2.5-3.3,2.5c-2.3,0-3.4-1.2-3.5-2.7h1.3C367.6,740.7,368.5,741.4,369.7,741.4z"/>
			<path fill="#303152" d="M376.9,735.4v5.7c0,0.3,0.1,0.3,0.4,0.3l0.6,0.1v0.5h-3.4v-0.5l0.6-0.1c0.3,0,0.4-0.1,0.4-0.3v-6.2
				c0-0.2-0.1-0.3-0.4-0.4l-0.6-0.1v-0.5h2.4L376.9,735.4z M375.6,730.8h1.3v1.8h-1.3V730.8z"/>
			<path fill="#303152" d="M385,734.6c0.4,0.4,0.6,1,0.6,1.8c0,1.6-1.1,2.8-3.1,2.8c-0.3,0-0.5,0-0.8-0.1c-0.5,0.1-1,0.3-1,0.7
				c0,0.4,0.3,0.6,1.3,0.7l1.9,0.1c2.1,0.1,2.7,0.8,2.7,1.7c0,1.2-1.2,2.5-4.2,2.5c-2.1,0-3.6-0.8-3.6-1.9c0-0.8,0.9-1.2,1.9-1.4
				c-1.1-0.3-1.4-0.8-1.4-1.3c0-0.6,0.6-1,1.6-1.2c-1-0.4-1.8-1.2-1.8-2.5c0-1.9,1.5-2.8,3.2-2.8c0.5,0,1,0.1,1.5,0.3l3.1-0.1v0.8
				H385z M381.4,741.7c-0.7,0.2-1.3,0.6-1.3,1.2c0,0.8,0.8,1.3,2.6,1.3c1.7,0,2.9-0.5,2.9-1.3c0-0.6-0.4-0.9-1.8-1l-1.9-0.1
				L381.4,741.7z M384.4,736.5c0-1.3-0.7-2.1-1.8-2.1c-1.1,0-1.9,0.6-1.9,2.1c0,1.4,0.9,2.1,1.9,2.1
				C383.6,738.6,384.4,737.8,384.4,736.5z"/>
			<path fill="#303152" d="M395.4,741c0,0.3,0.1,0.3,0.4,0.3l0.6,0.1v0.5h-3.4v-0.5l0.6-0.1c0.3,0,0.4-0.1,0.4-0.3v-4.3
				c0-1.4-0.4-2.2-1.6-2.2c-0.7,0-2.1,0.6-2.1,2.7v3.8c0,0.3,0.1,0.3,0.4,0.3l0.6,0.1v0.5h-3.4v-0.5l0.6-0.1c0.3,0,0.4-0.1,0.4-0.3
				v-6.2c0-0.2-0.1-0.3-0.4-0.4l-0.6-0.1v-0.5h2.3l0,1.5h0c0.5-1,1.4-1.6,2.7-1.6c1.9,0,2.3,1.5,2.3,2.7V741z"/>
			<path fill="#303152" d="M406.8,734.6h-2.4v5.2c0,1,0.3,1.2,1.1,1.2h1.3v0.9h-1.6c-1.6,0-2.1-0.3-2.1-2v-5.3h-1.5v-0.8h1.5v-2.6
				h1.3v2.6h2.4V734.6z"/>
			<path fill="#303152" d="M415.3,741c0,0.3,0.1,0.3,0.4,0.3l0.6,0.1v0.5H413v-0.5l0.6-0.1c0.3,0,0.4-0.1,0.4-0.3v-4.3
				c0-1.4-0.5-2.2-1.6-2.2c-0.7,0-2.1,0.6-2.1,2.7v3.8c0,0.3,0.1,0.3,0.4,0.3l0.6,0.1v0.5H408v-0.5l0.6-0.1c0.3,0,0.4-0.1,0.4-0.3
				v-9.4c0-0.3-0.1-0.3-0.4-0.3l-0.6-0.1v-0.5h2.4l0,1.5v2.1c0,0.3,0,0.9,0,0.9h0c0.5-1,1.4-1.6,2.7-1.6c1.8,0,2.3,1.5,2.3,2.7V741z
				"/>
			<path fill="#303152" d="M423.5,739.4h1.3c-0.3,1.8-1.9,2.7-3.5,2.7c-2.5,0-3.8-1.9-3.8-4.2c0-2.4,1.5-4.2,3.8-4.2
				c1.7,0,3.6,1.2,3.6,4.3h-6c0,2,0.7,3.4,2.5,3.4C422.6,741.4,423.4,740.7,423.5,739.4z M418.9,737.3h4.6c0-2-1-2.8-2.2-2.8
				C420.1,734.4,419,735.4,418.9,737.3z"/>
			<path fill="#303152" d="M439.5,735.4c0.2-0.6,0.2-1-0.4-1l-0.4,0v-0.5h2.7v0.5l-0.4,0c-0.5,0-0.6,0.2-0.7,0.8l-1.9,6.8h-0.8
				l-2.1-6.2l-2,6.2h-0.7l-2-7.1c-0.1-0.3-0.2-0.5-0.6-0.5l-0.4,0v-0.5h3.3v0.5l-0.5,0c-0.3,0-0.4,0.1-0.4,0.3l1.3,5.3l1.9-6.2h0.8
				l2,6.2L439.5,735.4z"/>
			<path fill="#303152" d="M449.6,741c0,0.3,0.1,0.3,0.4,0.3l0.6,0.1v0.5h-3.4v-0.5l0.6-0.1c0.3,0,0.4-0.1,0.4-0.3v-4.3
				c0-1.4-0.5-2.2-1.6-2.2c-0.7,0-2.1,0.6-2.1,2.7v3.8c0,0.3,0.1,0.3,0.4,0.3l0.6,0.1v0.5h-3.4v-0.5l0.6-0.1c0.3,0,0.4-0.1,0.4-0.3
				v-9.4c0-0.3-0.1-0.3-0.4-0.3l-0.6-0.1v-0.5h2.4l0,1.5v2.1c0,0.3,0,0.9,0,0.9h0c0.5-1,1.4-1.6,2.7-1.6c1.8,0,2.3,1.5,2.3,2.7V741z
				"/>
			<path fill="#303152" d="M457.1,736.3c0-1.4-0.6-1.9-1.8-1.9c-1.4,0-1.8,0.9-1.9,1.8h-1.3c0.1-1.5,1.4-2.5,3.2-2.5
				c2.1,0,3.1,0.7,3.1,2.7c0,1,0,1.7,0,2.6c0,0.8,0,1.2,0,2c0,0.3,0.1,0.3,0.4,0.3l0.6,0.1v0.5l-2.2,0.1l-0.1-1.5h0
				c-0.4,0.9-1.3,1.6-2.8,1.6c-1.4,0-2.5-0.9-2.5-2.2c0-1.9,2.3-2.4,5.2-2.7V736.3z M457.2,737.9c-2.1,0.2-3.8,0.4-3.8,2
				c0,0.8,0.6,1.4,1.6,1.4c1.2,0,2.2-0.9,2.2-3V737.9z"/>
			<path fill="#303152" d="M463.1,730.8l0,1.5v8.8c0,0.3,0.1,0.3,0.4,0.3l0.6,0.1v0.5h-3.4v-0.5l0.6-0.1c0.3,0,0.4-0.1,0.4-0.3v-9.4
				c0-0.3-0.1-0.3-0.4-0.3l-0.6-0.1v-0.5H463.1z"/>
			<path fill="#303152" d="M471.5,739.4h1.3c-0.3,1.8-1.9,2.7-3.5,2.7c-2.5,0-3.8-1.9-3.8-4.2c0-2.4,1.5-4.2,3.8-4.2
				c1.7,0,3.6,1.2,3.6,4.3h-6c0,2,0.7,3.4,2.5,3.4C470.6,741.4,471.4,740.7,471.5,739.4z M466.9,737.3h4.6c0-2-1-2.8-2.2-2.8
				C468,734.4,467,735.4,466.9,737.3z"/>
			<path fill="#303152" d="M474.4,740.2h1.8v1.8h-1.8V740.2z"/>
		</g>
	</g>
	<line fill="none" stroke="#303152" stroke-width="6" stroke-miterlimit="10" x1="232.2" y1="762.4" x2="1414.1" y2="762.4"/>
	<g>
		<g>
			<path fill="#303152" d="M237.9,789c0,0.4,0,0.7-0.1,1.1c-0.1,0.4-0.2,0.7-0.4,0.9c-0.2,0.3-0.5,0.5-0.9,0.7
				c-0.4,0.2-0.9,0.3-1.5,0.3c-0.5,0-0.8-0.1-1.2-0.2s-0.6-0.3-0.8-0.6c-0.2-0.2-0.4-0.5-0.5-0.9c-0.1-0.3-0.1-0.7-0.1-1.1v-0.5h1.5
				v0.4c0,0.5,0.1,0.9,0.2,1.1s0.5,0.4,0.9,0.4c0.2,0,0.4,0,0.6-0.1c0.2-0.1,0.3-0.2,0.4-0.3c0.1-0.1,0.2-0.3,0.2-0.5
				c0-0.2,0-0.4,0-0.7v-5.9h1.5V789z"/>
			<path fill="#303152" d="M239.8,783.2h1.4v1.3h-1.4V783.2z M239.8,785.6h1.4v6.2h-1.4V785.6z"/>
			<path fill="#303152" d="M242.9,785.6h1.4v6.7c0,0.6-0.1,1.1-0.4,1.4c-0.3,0.3-0.7,0.5-1.4,0.5c-0.1,0-0.2,0-0.3,0s-0.2,0-0.3,0
				v-1.1c0.1,0,0.2,0,0.3,0c0.1,0,0.2,0,0.2,0c0.2,0,0.4-0.1,0.5-0.2s0.1-0.4,0.1-0.7V785.6z M242.9,783.2h1.4v1.3h-1.4V783.2z"/>
			<path fill="#303152" d="M248.9,791.9c-0.5,0-0.9-0.1-1.3-0.2c-0.4-0.2-0.7-0.4-1-0.7c-0.3-0.3-0.5-0.6-0.6-1
				c-0.1-0.4-0.2-0.8-0.2-1.3c0-0.5,0.1-0.9,0.2-1.3c0.1-0.4,0.3-0.7,0.6-1c0.3-0.3,0.6-0.5,1-0.7c0.4-0.2,0.8-0.2,1.3-0.2
				c0.5,0,0.9,0.1,1.3,0.2c0.4,0.2,0.7,0.4,1,0.7c0.3,0.3,0.5,0.6,0.6,1c0.1,0.4,0.2,0.8,0.2,1.3c0,0.5-0.1,0.9-0.2,1.3
				c-0.1,0.4-0.3,0.7-0.6,1c-0.3,0.3-0.6,0.5-1,0.7C249.8,791.9,249.4,791.9,248.9,791.9z M248.9,790.9c0.3,0,0.6-0.1,0.8-0.2
				s0.4-0.3,0.6-0.5c0.1-0.2,0.2-0.4,0.3-0.7c0.1-0.3,0.1-0.5,0.1-0.8c0-0.3,0-0.5-0.1-0.8c-0.1-0.3-0.2-0.5-0.3-0.7
				s-0.3-0.4-0.6-0.5s-0.5-0.2-0.8-0.2c-0.3,0-0.6,0.1-0.8,0.2s-0.4,0.3-0.6,0.5s-0.2,0.4-0.3,0.7c-0.1,0.3-0.1,0.5-0.1,0.8
				c0,0.3,0,0.5,0.1,0.8c0.1,0.3,0.2,0.5,0.3,0.7c0.1,0.2,0.3,0.4,0.6,0.5S248.6,790.9,248.9,790.9z"/>
			<path fill="#303152" d="M253.4,785.6h1.3v0.9l0,0c0.2-0.3,0.5-0.6,0.8-0.8c0.3-0.2,0.7-0.3,1.1-0.3c0.7,0,1.2,0.2,1.6,0.5
				s0.6,0.9,0.6,1.6v4.3h-1.4v-3.9c0-0.5-0.1-0.8-0.3-1.1c-0.2-0.2-0.5-0.3-0.9-0.3c-0.2,0-0.4,0-0.6,0.1s-0.3,0.2-0.5,0.3
				c-0.1,0.1-0.2,0.3-0.3,0.5c-0.1,0.2-0.1,0.4-0.1,0.6v3.7h-1.4V785.6z"/>
			<path fill="#303152" d="M260.5,783.2h1.4v1.3h-1.4V783.2z M260.5,785.6h1.4v6.2h-1.4V785.6z"/>
			<path fill="#303152" d="M263.6,785.6h1.3v0.9l0,0c0.2-0.3,0.5-0.6,0.8-0.8c0.3-0.2,0.7-0.3,1.1-0.3c0.7,0,1.2,0.2,1.6,0.5
				s0.6,0.9,0.6,1.6v4.3h-1.4v-3.9c0-0.5-0.1-0.8-0.3-1.1c-0.2-0.2-0.5-0.3-0.9-0.3c-0.2,0-0.4,0-0.6,0.1s-0.3,0.2-0.5,0.3
				c-0.1,0.1-0.2,0.3-0.3,0.5c-0.1,0.2-0.1,0.4-0.1,0.6v3.7h-1.4V785.6z"/>
			<path fill="#303152" d="M270.8,785.6h1.4v6.7c0,0.6-0.1,1.1-0.4,1.4c-0.3,0.3-0.7,0.5-1.4,0.5c-0.1,0-0.2,0-0.3,0s-0.2,0-0.3,0
				v-1.1c0.1,0,0.2,0,0.3,0c0.1,0,0.2,0,0.2,0c0.2,0,0.4-0.1,0.5-0.2s0.1-0.4,0.1-0.7V785.6z M270.8,783.2h1.4v1.3h-1.4V783.2z"/>
			<path fill="#303152" d="M279.1,790.4c0,0.2,0,0.3,0.1,0.4s0.1,0.1,0.3,0.1c0,0,0.1,0,0.1,0s0.1,0,0.2,0v0.9c0,0-0.1,0-0.2,0.1
				c-0.1,0-0.2,0-0.2,0.1c-0.1,0-0.2,0-0.2,0c-0.1,0-0.1,0-0.2,0c-0.3,0-0.5-0.1-0.7-0.2s-0.3-0.3-0.4-0.6c-0.3,0.3-0.6,0.5-1,0.6
				c-0.4,0.1-0.8,0.2-1.1,0.2c-0.3,0-0.5,0-0.8-0.1c-0.3-0.1-0.5-0.2-0.7-0.3c-0.2-0.1-0.4-0.3-0.5-0.6c-0.1-0.2-0.2-0.5-0.2-0.8
				c0-0.4,0.1-0.7,0.2-0.9c0.1-0.2,0.3-0.4,0.6-0.6s0.5-0.2,0.8-0.3c0.3-0.1,0.6-0.1,0.9-0.1c0.2,0,0.5-0.1,0.7-0.1s0.4-0.1,0.6-0.1
				c0.2,0,0.3-0.1,0.4-0.2c0.1-0.1,0.2-0.2,0.2-0.5c0-0.2,0-0.3-0.1-0.4c-0.1-0.1-0.2-0.2-0.3-0.3c-0.1-0.1-0.3-0.1-0.4-0.1
				c-0.2,0-0.3,0-0.4,0c-0.4,0-0.7,0.1-0.9,0.2c-0.2,0.2-0.4,0.4-0.4,0.7h-1.4c0-0.4,0.1-0.7,0.3-1c0.2-0.3,0.4-0.5,0.6-0.6
				s0.6-0.3,0.9-0.3c0.3-0.1,0.7-0.1,1-0.1c0.3,0,0.6,0,0.9,0.1c0.3,0.1,0.6,0.2,0.8,0.3s0.4,0.3,0.6,0.6s0.2,0.5,0.2,0.8V790.4z
				 M277.7,788.7c-0.2,0.1-0.5,0.2-0.8,0.2c-0.3,0-0.6,0.1-0.9,0.1c-0.1,0-0.3,0.1-0.4,0.1c-0.1,0-0.3,0.1-0.4,0.2
				c-0.1,0.1-0.2,0.2-0.2,0.3c-0.1,0.1-0.1,0.3-0.1,0.4c0,0.2,0,0.3,0.1,0.4c0.1,0.1,0.2,0.2,0.3,0.2c0.1,0.1,0.3,0.1,0.4,0.1
				c0.1,0,0.3,0,0.4,0c0.2,0,0.3,0,0.5-0.1s0.3-0.1,0.5-0.2c0.2-0.1,0.3-0.2,0.4-0.4c0.1-0.1,0.2-0.3,0.2-0.5V788.7z"/>
		</g>
	</g>
	<g>
		<g>
			<path fill="#303152" d="M370.5,776.4h1.5v3.8l1.1-0.6c0.6-0.3,0.7-0.8,0.3-1.4l1.4-0.8l0.7,1.3l-3.4,1.9l1.1,0.7
				c0.6,0.3,1,0.2,1.4-0.4l1.4,0.8l-0.7,1.3l-3.3-1.9v1.3c0,0.6,0.4,1,1.1,1v1.6h-1.5v-3.8l-1.1,0.6c-0.6,0.3-0.7,0.8-0.3,1.4
				l-1.4,0.8l-0.7-1.3l3.4-1.9l-1.1-0.7c-0.6-0.3-1-0.2-1.4,0.4l-1.4-0.8l0.7-1.3l3.3,1.9v-1.3c0-0.6-0.4-1-1.1-1V776.4z"/>
			<path fill="#303152" d="M385.8,783.6c1.7,0,3.2,0.9,3.4,2.7h-1.3c-0.1-1.3-0.9-2-2.1-2c-1.8,0-2.4,1.9-2.4,3.4
				c0,1.6,0.5,3.5,2.4,3.5c1.3,0,2-0.7,2.1-2h1.3c-0.3,1.8-1.8,2.7-3.5,2.7c-2.3,0-3.7-1.8-3.7-4.2
				C382.1,785.4,383.5,783.6,385.8,783.6z"/>
			<path fill="#303152" d="M394.6,792c-2.2,0-3.8-1.7-3.8-4.2s1.6-4.2,3.8-4.2c2.2,0,3.8,1.7,3.8,4.2S396.7,792,394.6,792z
				 M394.6,791.2c1.3,0,2.4-1.1,2.4-3.5c0-2.4-1-3.5-2.4-3.5c-1.3,0-2.4,1.1-2.4,3.5C392.2,790.1,393.2,791.2,394.6,791.2z"/>
			<path fill="#303152" d="M407.1,780.6l0,1.5v8.7c0,0.3,0.1,0.3,0.4,0.3l0.6,0.1v0.5l-2.2,0.1l-0.1-1.5h0c-0.5,0.9-1.3,1.7-2.6,1.7
				c-1.9,0-3.3-1.7-3.3-4.2c0-2.5,1.6-4.2,3.5-4.2c1.2,0,2,0.7,2.3,1.5h0c0-0.9,0-1.2,0-1.3v-2.2c0-0.3-0.1-0.3-0.4-0.3l-0.8-0.1
				v-0.5H407.1z M403.7,784.4c-1.3,0-2.3,1.2-2.3,3.4c0,2.2,1,3.4,2.3,3.4c1.1,0,2.3-0.9,2.3-3.4
				C405.9,785.2,404.9,784.4,403.7,784.4z"/>
			<path fill="#303152" d="M415.6,789.3h1.3c-0.3,1.8-1.9,2.7-3.5,2.7c-2.5,0-3.8-1.9-3.8-4.2c0-2.4,1.5-4.2,3.8-4.2
				c1.7,0,3.6,1.2,3.6,4.3h-6c0,2,0.7,3.4,2.5,3.4C414.7,791.2,415.5,790.5,415.6,789.3z M411,787.1h4.6c0-2-1-2.8-2.2-2.8
				C412.1,784.3,411.1,785.2,411,787.1z"/>
			<path fill="#303152" d="M419,782.5h1.5v1.5H419V782.5z M419,790.3h1.5v1.5H419V790.3z"/>
			<path fill="#303152" d="M427.5,784.6c0-2.6,1.3-4.5,2.8-5.7c-1,1.6-1.5,3.4-1.5,5.2c0,3.8,2.2,7.3,6.2,7.3c4,0,6.2-3.5,6.2-7.3
				c0-1.8-0.5-3.6-1.5-5.3c1.5,1.2,2.9,3.1,2.9,5.7c0,4.1-3.3,7.4-7.6,7.4S427.5,788.7,427.5,784.6z M435.1,777.3
				c1.6,0,2.7,0.3,4,1.1H431C432.3,777.6,433.5,777.3,435.1,777.3z"/>
			<path fill="#303152" d="M450.4,779.1l2.9-4.9l-6.5,15L444,794L450.4,779.1z"/>
			<path fill="#303152" d="M460.5,791.1v-12.4c-2.8-0.1-5.1-0.6-6.3-1.1h13.6c-1.2,0.6-3.5,1.1-6.3,1.1v12.4l2.7,0.7h-6.4
				L460.5,791.1z"/>
			<path fill="#303152" d="M475.1,779.1l2.9-4.9l-6.5,15l-2.8,4.7L475.1,779.1z"/>
			<path fill="#303152" d="M479.3,789.7l7.7-8.9c0.4-0.4,0.6-0.9,0.6-1.5c0-0.3-0.1-0.6-0.3-0.9c0.5,0.4,1.1,1.2,1.4,2l-7.7,8.8
				c-0.4,0.4-0.6,1-0.6,1.5c0,0.3,0.1,0.6,0.3,0.9C480.2,791.4,479.5,790.5,479.3,789.7z M483.6,777.3c1.4,0,2.5,0.3,3.6,1.1H480
				C481.1,777.6,482.2,777.3,483.6,777.3z M485,790.6c1.6,0,2.8,0.3,4.1,1.1h-8.3C482.1,791,483.4,790.6,485,790.6z"/>
			<path fill="#303152" d="M496.9,779.1l2.9-4.9l-6.5,15l-2.8,4.7L496.9,779.1z"/>
			<path fill="#303152" d="M501.7,786.4c0-3.8,1-7.7,3.1-11c-1.3,3.5-1.9,7.2-1.9,11s0.7,7.4,1.9,10.9
				C502.8,794.1,501.7,790.2,501.7,786.4z"/>
			<path fill="#303152" d="M513.2,779.1l2.9-4.9l-6.5,15l-2.8,4.7L513.2,779.1z"/>
			<path fill="#303152" d="M517.9,777.5h1.2v3.9L517.9,777.5z M519.1,782.3v9.7c-0.8-1.4-1.2-3.1-1.2-4.8
				C517.9,785.4,518.3,783.7,519.1,782.3z"/>
			<path fill="#303152" d="M522.4,777.5h1.2v3.9L522.4,777.5z M523.6,782.3v9.7c-0.8-1.4-1.2-3.1-1.2-4.8
				C522.4,785.4,522.8,783.7,523.6,782.3z"/>
			<path fill="#303152" d="M532,779.1l2.9-4.9l-6.5,15l-2.8,4.7L532,779.1z"/>
			<path fill="#303152" d="M536.2,778.7v-1.4l6.7,3.6L536.2,778.7z"/>
		</g>
	</g>
</g>
</svg>
