<?xml version="1.0" encoding="utf-8"?>
<!-- Generator: Adobe Illustrator 28.0.0, SVG Export Plug-In . SVG Version: 6.00 Build 0)  -->
<svg version="1.1" id="Livello_1" xmlns="http://www.w3.org/2000/svg" xmlns:xlink="http://www.w3.org/1999/xlink" x="0px" y="0px"
	 viewBox="0 0 1417.3 992.1" enable-background="new 0 0 1417.3 992.1" xml:space="preserve">
<g>
	<g>
		<g>
			<g>
				<path d="M771.2,356.4l-8.1,4.1l-4.1-8.1l8.1-4.1L771.2,356.4z M798.6,342.6l-8.1,4.1l-4.1-8.1l8.1-4.1L798.6,342.6z"/>
			</g>
		</g>
		<g>
			<g>
				<path d="M955.8,437.6l-71.3-21.3l-34.8,116.3L898,562l-124.5-37.2l56.5,1.9l75.2-251.6L857,245.8l72.1,21.6l-38.4,128.4
					l70.8,21.2l172.7-95.7c-40.8,64.5-120.2,95.5-182.6,103.9c60.9,46.7,116.9,120.5,116,192.3L955.8,437.6z"/>
			</g>
		</g>
		<g>
			<g>
				<path d="M856.6,737L812,679.6l17.8-13.8L856.6,737z M940.7,808.4c20.1,25.9,32.8,55.6,37.6,85.2L867.4,750.9
					C894.9,762.9,920.3,782.1,940.7,808.4z"/>
			</g>
		</g>
		<g>
			<g>
				<path d="M551.3,423.5l-68.2,17l32,128.2h-36.4l24.9-6.2l-29.9-119.6l-27-2.4l63.1-15.8C531,419.4,543.1,421,551.3,423.5z
					 M542.1,509.9c-13.7,3.4-26.7,3.2-37.6-2.1c9.7,1.7,19.4,1.2,29-1.2c36.3-9.1,45.2-45.6,21.9-81.8c16.5,6.9,21.7,21.9,24,30.9
					C585.9,481.9,568.9,503.3,542.1,509.9z"/>
			</g>
		</g>
		<g>
			<g>
				<path d="M540,454.7l-44.6,11.1c5.6-5.2,12.8-9.1,20.9-11.1C524.6,452.7,532.7,452.8,540,454.7z M560.9,443.6l1.4,5.6l-17.9,4.5
					L560.9,443.6z"/>
			</g>
		</g>
		<g>
			<g>
				<path d="M389,739.9l-18.6-24l89.8-69.8L389,739.9z M798.8,414.9L524.4,628.3l23.6,75.4l-61-78.5l341.8-265.8l-12,145.8
					L798.8,414.9z"/>
			</g>
		</g>
		<g>
			<g>
				<path d="M451.3,933.7l125.9-173.5l0.4,34.8l-29.4-117.7l16,30.9l-192.7-93.9l322.2-80.4L567.8,707.3l-0.4-34.8l29.4,117.7
					l-16-30.9l192.7,93.9L451.3,933.7z"/>
			</g>
		</g>
		<g>
			<path d="M739.3,376c-3.9-7.9-9.2-21.9-1.5-37c5.2,40.5,33.9,61.5,65.7,45.8c8.4-4.1,15.7-9.7,21.7-16.9
				c-4.6,10.5-13.9,18.6-25.9,24.5C775.9,403.9,750.5,398.9,739.3,376z M770.7,311.1L826,284l-18.1,18.2L859.2,407l21.8-10.7
				l-26.4,22.2l-55.1-112.3l-59.7,29.3C744.3,328.7,752.1,320.2,770.7,311.1z"/>
		</g>
	</g>
</g>
<line fill="none" stroke="#000000" stroke-width="7.0927" stroke-miterlimit="10" x1="0" y1="934.9" x2="1417.3" y2="934.9"/>
</svg>
